<?xml version="1.0" encoding="UTF-8" standalone="no"?>
<!-- Created with Inkscape (http://www.inkscape.org/) -->

<svg
   width="152.46629mm"
   height="429.14905mm"
   viewBox="0 0 152.4663 429.14904"
   version="1.1"
   id="svg5"
   inkscape:version="1.2.2 (732a01da63, 2022-12-09)"
   sodipodi:docname="help1-16.svg"
   inkscape:export-filename="help1-16.jpg"
   inkscape:export-xdpi="96"
   inkscape:export-ydpi="96"
   xmlns:inkscape="http://www.inkscape.org/namespaces/inkscape"
   xmlns:sodipodi="http://sodipodi.sourceforge.net/DTD/sodipodi-0.dtd"
   xmlns="http://www.w3.org/2000/svg"
   xmlns:svg="http://www.w3.org/2000/svg">
  <sodipodi:namedview
     id="namedview7"
     pagecolor="#ffffff"
     bordercolor="#000000"
     borderopacity="0.25"
     inkscape:showpageshadow="2"
     inkscape:pageopacity="0.0"
     inkscape:pagecheckerboard="0"
     inkscape:deskcolor="#d1d1d1"
     inkscape:document-units="mm"
     showgrid="false"
     inkscape:zoom="0.74457512"
     inkscape:cx="-10.744383"
     inkscape:cy="1235.604"
     inkscape:window-width="1920"
     inkscape:window-height="1057"
     inkscape:window-x="1358"
     inkscape:window-y="-8"
     inkscape:window-maximized="1"
     inkscape:current-layer="layer1" />
  <defs
     id="defs2">
    <rect
       x="98.766541"
       y="144.35109"
       width="520.42371"
       height="811.02521"
       id="rect236" />
  </defs>
  <g
     inkscape:label="Layer 1"
     inkscape:groupmode="layer"
     id="layer1"
     transform="translate(73.438721,-7.1327211)">
    <g
       aria-label="HELP1 HELP2 HELP3 HELP4 HELP5 HELP6 HELP7 HELP8 HELP9 HELP10 HELP11 HELP12 HELP13 HELP14 HELP15"
       id="text3219"
       style="font-size:21.7809px;line-height:1.25;font-family:'tan seme A';-inkscape-font-specification:'tan seme A';text-align:end;letter-spacing:0px;word-spacing:0px;text-anchor:end;white-space:pre;display:none;fill-rule:evenodd;stroke-width:3;stop-color:#000000">
      <path
         d="M 15.906541,7.8950526 V 27.868137 H 29.388918 V 24.579221 H 19.565733 V 7.8950526 Z"
         id="path3221" />
      <path
         d="M 37.687441,7.8950526 V 27.868137 H 51.169817 V 24.579221 H 41.346632 V 7.8950526 Z"
         id="path3223" />
      <path
         d="m 63.693834,21.072496 v 1.393978 h -1.393978 v 4.181933 h 1.393978 v -4.181933 h 4.181933 v 2.787955 h -1.393978 v 1.393978 h -2.787955 v 1.393977 h 2.787955 v -1.393977 h 1.393978 v 1.393977 h 1.393977 V 21.072496 Z M 65.087812,7.1327211 V 18.284541 h 1.393977 V 7.1327211 Z"
         id="path3225" />
      <path
         d="m -43.163254,35.121176 v 19.973085 h 13.482376 v -3.288916 h -9.823185 V 35.121176 Z"
         id="path3227" />
      <path
         d="m -12.517529,35.121176 h -4.247276 l -7.187696,19.973085 h 4.269056 l 1.873157,-5.227416 h 6.338242 l 1.873157,5.227416 h 4.2690562 z m -2.112748,4.573989 2.374118,6.882764 h -4.748236 z"
         id="path3229" />
      <path
         d="M -0.40734958,55.094261 H 3.2736224 v -13.32991 l 7.7975616,13.32991 h 3.615629 V 35.121176 H 11.005842 V 48.03725 L 3.1647179,35.121176 h -3.57206748 z"
         id="path3231" />
      <path
         d="m 20.676561,35.121176 v 3.310697 h 6.534269 v 16.684169 h 3.680972 V 38.431873 h 6.272899 v -3.310697 z"
         id="path3233" />
      <path
         d="m 43.960342,35.121176 v 19.973085 h 13.482376 v -3.288916 h -9.801404 v -5.292758 h 8.930168 v -3.288916 h -8.930168 v -4.791798 h 9.801404 v -3.310697 z"
         id="path3235" />
      <path
         d="m 73.669488,48.146154 c 0.04356,0.02178 0.04356,0.174247 0.04356,0.413837 -0.02178,0.23959 -0.04356,0.392056 -0.08712,0.413837 -0.130685,0.06534 -0.261371,0.06534 -0.392056,-0.04356 -0.152466,-0.08712 -0.217809,-0.217809 -0.217809,-0.370275 0,-0.108904 0.04356,-0.217809 0.130686,-0.326713 0.08712,-0.08712 0.174247,-0.130686 0.304932,-0.130686 0.08712,0 0.174247,0.02178 0.217809,0.04356 z m -0.805893,-1.197949 c -0.304933,0.108904 -0.544523,0.304932 -0.762332,0.588084 -0.26137,0.326713 -0.392056,0.71877 -0.348494,1.132607 0.04356,0.435618 0.217809,0.805893 0.522742,1.089045 0.174247,0.174247 0.348494,0.283151 0.50096,0.348494 0.130686,0.06534 0.348495,0.08712 0.653427,0.08712 0.348495,0 0.588084,-0.02178 0.71877,-0.08712 0.08712,-0.04356 0.152466,-0.06534 0.196028,-0.06534 0.02178,0 0.06534,0.02178 0.152466,0.06534 0.108905,0.06534 0.196028,0.108904 0.23959,0.108904 0.02178,0 0.130686,-0.08712 0.326714,-0.26137 0.196028,-0.174248 0.304932,-0.283152 0.326713,-0.326714 l -0.108904,-0.04356 c -0.23959,0 -0.435618,-0.108904 -0.609866,-0.326713 -0.174247,-0.196028 -0.239589,-0.413837 -0.217809,-0.653427 0,-0.23959 0.108905,-0.435618 0.304933,-0.609865 l 0.217809,-0.217809 -0.08712,-0.174247 C 74.69319,47.31848 74.43182,47.100671 74.083325,46.948205 c -0.174247,-0.06534 -0.370275,-0.08712 -0.609865,-0.08712 -0.261371,0 -0.457399,0.02178 -0.609865,0.08712 z m -0.283152,-3.920562 c 0,2.199871 0,3.354258 0.04356,3.506724 0,0.06534 0,0.08712 0.04356,0.06534 0.217809,-0.108904 0.50096,-0.152466 0.805893,-0.174247 0.304933,-0.02178 0.588084,0.02178 0.805893,0.08712 l 0.261371,0.108904 v -3.593848 -3.593849 h -0.98014 -0.980141 z"
         id="path3237" />
      <path
         d="M 13.46705,62.3473 V 82.320385 H 26.949426 V 79.031469 H 17.126241 V 62.3473 Z"
         id="path3239" />
      <path
         d="m 33.919314,62.3473 v 19.973085 h 3.680972 v -6.795641 l 1.611787,-1.807815 6.229337,8.603456 h 4.61755 L 42.021809,71.255688 49.645123,62.3473 h -4.59577 l -7.449067,8.559894 V 62.3473 Z"
         id="path3241" />
      <path
         d="m 62.691882,72.0398 c 1.829595,0 3.267135,1.43754 3.267135,3.267135 0,1.829596 -1.43754,3.267135 -3.267135,3.267135 -1.829596,0 -3.267135,-1.437539 -3.267135,-3.267135 0,-1.829595 1.437539,-3.267135 3.267135,-3.267135 z m 0,-4.35618 c -4.181933,0 -7.623315,3.441383 -7.623315,7.623315 0,4.181933 3.441382,7.623315 7.623315,7.623315 1.960281,0 3.768095,-0.740551 5.118511,-1.982062 l 0.06534,0.06534 c 1.21973,1.21973 2.896859,1.916719 4.61755,1.916719 h 2.17809 c 1.19795,0 2.17809,-0.980141 2.17809,-2.17809 0,-1.19795 -0.98014,-2.17809 -2.17809,-2.17809 h -2.17809 c -0.588084,0 -1.132606,-0.217809 -1.546444,-0.631646 -0.413837,-0.413837 -0.631646,-0.95836 -0.631646,-1.546444 0,-0.108904 -0.02178,-0.23959 -0.04356,-0.348494 0.02178,-0.23959 0.04356,-0.500961 0.04356,-0.740551 0,-4.181932 -3.441382,-7.623315 -7.623314,-7.623315 z m 11.979494,-6.534269 c -1.197949,0 -2.17809,0.98014 -2.17809,2.17809 V 74.21789 c 0,1.19795 0.980141,2.17809 2.17809,2.17809 1.19795,0 2.17809,-0.98014 2.17809,-2.17809 V 63.327441 c 0,-1.19795 -0.98014,-2.17809 -2.17809,-2.17809 z"
         id="path3243" />
      <path
         d="m 17.300501,89.573424 v 19.973086 h 13.482377 v -3.28892 H 20.959692 V 89.573424 Z"
         id="path3245" />
      <path
         d="m 39.037838,89.573424 v 19.994866 h 3.680972 v -8.01537 c 0.71877,0 1.306854,-0.0218 1.764253,-0.0218 0.47918,-0.0218 1.089045,-0.0653 1.851377,-0.13069 0.762331,-0.0871 1.393977,-0.19603 1.894938,-0.34849 0.522741,-0.15247 1.067264,-0.37028 1.677129,-0.65343 0.588084,-0.30493 1.067264,-0.653426 1.437539,-1.067263 0.348495,-0.413837 0.653427,-0.936579 0.893017,-1.590006 0.23959,-0.631646 0.370275,-1.372197 0.370275,-2.17809 0,-0.805893 -0.130685,-1.546444 -0.370275,-2.17809 -0.23959,-0.653427 -0.544522,-1.176168 -0.893017,-1.590005 -0.370275,-0.413837 -0.849455,-0.762332 -1.437539,-1.067264 -0.609865,-0.283152 -1.176169,-0.500961 -1.677129,-0.653427 -0.47918,-0.152467 -1.110826,-0.261371 -1.894938,-0.326714 -0.762332,-0.08712 -1.372197,-0.130685 -1.829596,-0.130685 -0.457399,-0.02178 -1.045483,-0.04356 -1.786034,-0.04356 z m 3.680972,8.690579 v -5.379882 h 0.980141 c 0.718769,0 1.328635,0 1.786033,0.04356 0.500961,0.02178 0.95836,0.108905 1.415759,0.217809 0.457399,0.08712 0.827674,0.23959 1.067264,0.435618 0.283152,0.196029 0.47918,0.457399 0.631646,0.784113 0.152466,0.326713 0.23959,0.718769 0.23959,1.197949 0,0.47918 -0.08712,0.871236 -0.23959,1.219731 -0.152466,0.304932 -0.348494,0.566303 -0.631646,0.762331 -0.23959,0.196028 -0.609865,0.348494 -1.067264,0.457399 -0.457399,0.108904 -0.914798,0.174247 -1.415759,0.217809 -0.457398,0.02178 -1.067264,0.04356 -1.786033,0.04356 z"
         id="path3247" />
      <path
         d="m 64.826423,102.72909 h 0.196028 c 0.06534,0 0.152466,0 0.23959,0.0218 0.08712,0.0218 0.196028,0.0653 0.370275,0.13068 l 0.02178,0.0218 c 0.08712,0.0218 0.174247,0.0654 0.261371,0.13069 0.08712,0.0653 0.196028,0.1089 0.283151,0.15247 0.108905,0.1089 0.283152,0.23959 0.522742,0.39205 l -0.02178,0.0218 c -1.263292,0.19603 -2.352337,0.50096 -3.288916,0.9148 0.04356,-0.0436 0.06534,-0.0871 0.06534,-0.13068 l 0.457399,-0.71877 c 0.326713,-0.43562 0.631646,-0.74055 0.893017,-0.93658 z m -4.966045,4.00768 v 0.0218 c 0.04356,0.28316 0.152466,0.52274 0.304932,0.71877 0.348495,0.43562 0.762332,0.69699 1.285073,0.8059 0.08712,0.0218 0.196029,0.0436 0.326714,0.0871 0.130685,0.0218 0.326713,0.0436 0.588084,0.0436 0.261371,0 0.500961,-0.0436 0.71877,-0.1089 h 0.02178 c 0.304932,-0.10891 0.784112,-0.32672 1.437539,-0.67521 0.653427,-0.32671 1.655348,-1.11083 3.027545,-2.33056 0.217809,-0.19602 0.304933,-0.4574 0.304933,-0.76233 0.26137,0.21781 0.675208,0.56631 1.21973,1.0237 0.283152,0.23959 0.631646,0.4574 1.023702,0.69699 0.413837,0.23959 0.71877,0.47918 0.914798,0.69699 0.283152,0.37028 0.631646,0.54452 1.045483,0.54452 0.435618,0 0.805893,-0.13068 1.132607,-0.41383 0.326713,-0.28315 0.47918,-0.63165 0.47918,-1.04549 0,-0.41383 -0.130686,-0.80589 -0.435618,-1.1326 -0.283152,-0.32672 -0.588085,-0.67521 -0.914798,-1.02371 l -0.95836,-1.0237 c -0.435618,-0.4574 -0.827674,-0.84945 -1.21973,-1.17617 -0.370275,-0.32671 -0.740551,-0.60986 -1.110826,-0.89301 -0.370275,-0.28315 -0.696989,-0.52274 -0.98014,-0.69699 -0.283152,-0.174249 -0.675208,-0.348496 -1.154388,-0.522743 -0.457399,-0.130686 -0.871236,-0.217809 -1.241511,-0.23959 H 65.24026 c -0.174247,0 -0.326714,0 -0.457399,0.02178 l -0.348494,0.04356 c -0.47918,0.08712 -0.914798,0.261371 -1.285073,0.500961 -0.348495,0.239592 -0.696989,0.544522 -1.001922,0.893022 -0.304932,0.32671 -0.566303,0.6752 -0.805893,1.0237 h -0.02178 c -0.217809,0.34849 -0.457399,0.74055 -0.675208,1.17617 -0.217809,0.41383 -0.348494,0.69699 -0.392056,0.80589 -0.04356,0.10891 -0.152466,0.52274 -0.348494,1.21973 -0.06534,0.37028 -0.108905,0.65343 -0.108905,0.84946 0,0.19602 0.02178,0.47918 0.06534,0.87123 z M 73.364535,93.733576 c 0.47918,-0.23959 0.980141,-0.47918 1.502882,-0.740551 0.522742,-0.23959 0.784113,-0.696989 0.784113,-1.372196 0,-0.196029 -0.04356,-0.413838 -0.174248,-0.631647 -0.283151,-0.566303 -0.784112,-0.849455 -1.524663,-0.849455 -0.348494,0 -0.958359,0.130686 -1.829595,0.392057 -0.435618,0.152466 -0.784112,0.283151 -1.045483,0.413837 l -0.47918,0.26137 c -0.152466,0.08712 -0.304933,0.174248 -0.457399,0.283152 l -0.958359,0.653427 c -0.871236,0.71877 -1.481102,1.328635 -1.873158,1.829596 -0.348494,0.435618 -0.609865,0.805893 -0.784112,1.132606 l -0.02178,0.02178 c -0.174247,0.370276 -0.261371,0.827674 -0.304933,1.415759 v 0.02178 c 0,0.74055 0.326714,1.306854 0.936579,1.720691 0.304933,0.196028 0.544523,0.283151 0.71877,0.283151 0.196028,0.02178 0.370275,0.02178 0.544522,0.02178 0.174247,0 0.326714,-0.06534 0.500961,-0.174247 0.174247,-0.108904 0.283152,-0.196028 0.348494,-0.217809 0.326714,-0.304933 0.544523,-0.740551 0.653427,-1.285073 0,-0.02178 0.02178,-0.04356 0.02178,-0.06534 0,-0.02178 0,-0.04356 0.02178,-0.06534 l 0.02178,-0.06534 c 0.06534,-0.108905 0.261371,-0.348495 0.588084,-0.71877 0.108905,-0.108904 0.217809,-0.23959 0.326714,-0.348494 0.108904,-0.108905 0.217809,-0.23959 0.326713,-0.348495 l 0.348495,-0.348494 c 0.566303,-0.566303 1.176168,-0.98014 1.807814,-1.21973 z"
         id="path3249" />
      <path
         d="m -27.241434,116.79955 v 3.31069 h 6.53427 v 16.68417 h 3.680972 v -16.68417 h 6.272899 v -3.31069 z"
         id="path3251" />
      <path
         d="m -5.3298494,126.42671 c 0,0.91479 0.087124,1.82959 0.2613708,2.74439 0.1960281,0.9148 0.5009607,1.80781 0.9147978,2.67905 0.4138371,0.87124 0.9147977,1.65535 1.5246629,2.30877 0.6098652,0.67521 1.3721966,1.19795 2.3087753,1.61179 0.93657866,0.41384 1.9602809,0.60987 3.1146686,0.60987 1.1326067,0 2.1780899,-0.19603 3.1146685,-0.60987 0.9365787,-0.41384 1.6989102,-0.93658 2.3087753,-1.61179 0.6098652,-0.65342 1.1108259,-1.43753 1.524663,-2.30877 0.4138372,-0.87124 0.7187692,-1.76425 0.8930172,-2.65727 0.174247,-0.9148 0.26137,-1.8296 0.26137,-2.76617 0,-0.93658 -0.08712,-1.87316 -0.26137,-2.76618 -0.174248,-0.9148 -0.47918,-1.80781 -0.8930172,-2.70083 -0.4138371,-0.89302 -0.9147978,-1.65535 -1.524663,-2.30878 -0.6098651,-0.6752 -1.3721966,-1.21973 -2.3087753,-1.61178 -0.9365786,-0.41384 -1.9820618,-0.63165 -3.1146685,-0.63165 -1.1543877,0 -2.17808994,0.21781 -3.1146686,0.63165 -0.9365787,0.39205 -1.6989101,0.93658 -2.3087753,1.61178 -0.6098652,0.65343 -1.1108258,1.41576 -1.5246629,2.30878 -0.4138371,0.89302 -0.7187697,1.78603 -0.9147978,2.70083 -0.1742472,0.89302 -0.2613708,1.8296 -0.2613708,2.76618 z m 12.5022361,0 c 0,0.6752 -0.043562,1.32863 -0.1306854,1.96028 -0.087124,0.60986 -0.2395899,1.21973 -0.4573989,1.80781 -0.1960281,0.60987 -0.4791798,1.11083 -0.8058933,1.56823 -0.3049326,0.43561 -0.7187696,0.78411 -1.2415112,1.06726 -0.5227416,0.26137 -1.089045,0.39206 -1.7424719,0.39206 -0.653427,0 -1.2197304,-0.13069 -1.742472,-0.39206 -0.52274154,-0.28315 -0.93657862,-0.63165 -1.2632921,-1.06726 -0.32671349,-0.4574 -0.58808428,-0.95836 -0.8058933,-1.56823 -0.1960281,-0.58808 -0.3484944,-1.19795 -0.4356179,-1.80781 -0.087124,-0.63165 -0.1306854,-1.28508 -0.1306854,-1.96028 0,-0.69699 0.043562,-1.35042 0.1306854,-1.96029 0.087123,-0.63164 0.2395898,-1.24151 0.4356179,-1.85137 0.21780902,-0.60987 0.47917981,-1.13261 0.8058933,-1.56823 0.32671348,-0.43561 0.74055056,-0.80589 1.2632921,-1.06726 0.5009607,-0.26137 1.089045,-0.39206 1.742472,-0.39206 0.8058932,0 1.4811011,0.19603 2.0909663,0.58809 0.5880842,0.41383 1.0454831,0.93658 1.3504157,1.61178 0.3267135,0.67521 0.5663034,1.41576 0.7187697,2.17809 0.1306854,0.76234 0.217809,1.59001 0.217809,2.46125 z"
         id="path3253" />
      <path
         d="m 17.779685,116.79955 v 19.99486 h 3.680971 v -8.01537 c 0.71877,0 1.306854,-0.0218 1.764253,-0.0218 0.47918,-0.0218 1.089045,-0.0653 1.851377,-0.13068 0.762331,-0.0871 1.393977,-0.19603 1.894938,-0.3485 0.522741,-0.15246 1.067264,-0.37027 1.677129,-0.65343 0.588084,-0.30493 1.067264,-0.65342 1.437539,-1.06726 0.348495,-0.41384 0.653427,-0.93658 0.893017,-1.59001 0.23959,-0.63164 0.370276,-1.37219 0.370276,-2.17808 0,-0.8059 -0.130686,-1.54645 -0.370276,-2.17809 -0.23959,-0.65343 -0.544522,-1.17617 -0.893017,-1.59001 -0.370275,-0.41384 -0.849455,-0.76233 -1.437539,-1.06726 -0.609865,-0.28316 -1.176168,-0.50097 -1.677129,-0.65343 -0.47918,-0.15247 -1.110826,-0.26137 -1.894938,-0.32672 -0.762332,-0.0871 -1.372197,-0.13068 -1.829596,-0.13068 -0.457399,-0.0218 -1.045483,-0.0436 -1.786034,-0.0436 z m 3.680971,8.69058 v -5.37989 h 0.980141 c 0.71877,0 1.328635,0 1.786034,0.0436 0.50096,0.0218 0.958359,0.1089 1.415758,0.21781 0.457399,0.0871 0.827674,0.23959 1.067264,0.43561 0.283152,0.19603 0.47918,0.4574 0.631646,0.78412 0.152466,0.32671 0.23959,0.71877 0.23959,1.19795 0,0.47917 -0.08712,0.87123 -0.23959,1.21973 -0.152466,0.30493 -0.348494,0.5663 -0.631646,0.76233 -0.23959,0.19602 -0.609865,0.34849 -1.067264,0.4574 -0.457399,0.1089 -0.914798,0.17424 -1.415758,0.2178 -0.457399,0.0218 -1.067264,0.0436 -1.786034,0.0436 z"
         id="path3255" />
      <path
         d="m 38.231949,126.42671 c 0,0.91479 0.08712,1.82959 0.261371,2.74439 0.196028,0.9148 0.50096,1.80781 0.914797,2.67905 0.413837,0.87124 0.914798,1.65535 1.524663,2.30877 0.609865,0.67521 1.372197,1.19795 2.308775,1.61179 0.936579,0.41384 1.960281,0.60987 3.114669,0.60987 1.132607,0 2.17809,-0.19603 3.114669,-0.60987 0.936578,-0.41384 1.69891,-0.93658 2.308775,-1.61179 0.609865,-0.65342 1.110826,-1.43753 1.524663,-2.30877 0.413837,-0.87124 0.71877,-1.76425 0.893017,-2.65727 0.174247,-0.9148 0.261371,-1.8296 0.261371,-2.76617 0,-0.93658 -0.08712,-1.87316 -0.261371,-2.76618 -0.174247,-0.9148 -0.47918,-1.80781 -0.893017,-2.70083 -0.413837,-0.89302 -0.914798,-1.65535 -1.524663,-2.30878 -0.609865,-0.6752 -1.372197,-1.21973 -2.308775,-1.61178 -0.936579,-0.41384 -1.982062,-0.63165 -3.114669,-0.63165 -1.154388,0 -2.17809,0.21781 -3.114669,0.63165 -0.936578,0.39205 -1.69891,0.93658 -2.308775,1.61178 -0.609865,0.65343 -1.110826,1.41576 -1.524663,2.30878 -0.413837,0.89302 -0.718769,1.78603 -0.914797,2.70083 -0.174248,0.89302 -0.261371,1.8296 -0.261371,2.76618 z m 12.502236,0 c 0,0.6752 -0.04356,1.32863 -0.130686,1.96028 -0.08712,0.60986 -0.23959,1.21973 -0.457399,1.80781 -0.196028,0.60987 -0.479179,1.11083 -0.805893,1.56823 -0.304932,0.43561 -0.718769,0.78411 -1.241511,1.06726 -0.522742,0.26137 -1.089045,0.39206 -1.742472,0.39206 -0.653427,0 -1.21973,-0.13069 -1.742472,-0.39206 -0.522741,-0.28315 -0.936579,-0.63165 -1.263292,-1.06726 -0.326713,-0.4574 -0.588084,-0.95836 -0.805893,-1.56823 -0.196028,-0.58808 -0.348495,-1.19795 -0.435618,-1.80781 -0.08712,-0.63165 -0.130686,-1.28508 -0.130686,-1.96028 0,-0.69699 0.04356,-1.35042 0.130686,-1.96029 0.08712,-0.63164 0.23959,-1.24151 0.435618,-1.85137 0.217809,-0.60987 0.47918,-1.13261 0.805893,-1.56823 0.326713,-0.43561 0.740551,-0.80589 1.263292,-1.06726 0.500961,-0.26137 1.089045,-0.39206 1.742472,-0.39206 0.805893,0 1.481101,0.19603 2.090966,0.58809 0.588085,0.41383 1.045484,0.93658 1.350416,1.61178 0.326714,0.67521 0.566303,1.41576 0.71877,2.17809 0.130685,0.76234 0.217809,1.59001 0.217809,2.46125 z"
         id="path3257" />
      <path
         d="m 66.917393,119.1301 c -0.04356,0.0436 -0.08712,0.28316 -0.130686,0.69699 -0.04356,0.19603 -0.130685,0.76233 -0.26137,1.74247 -0.174248,0.84946 -0.217809,1.74248 -0.130686,2.65727 0.06534,0.9148 0.217809,1.41576 0.457399,1.50289 0.174247,0.0436 0.304933,0.0436 0.435618,0 0.108905,-0.0436 0.196028,-0.19603 0.283152,-0.43562 0.08712,-0.23959 0.152466,-0.54452 0.196028,-0.95836 0.04356,-0.39206 0.06534,-0.9148 0.08712,-1.56823 0.04356,-1.45932 0.04356,-2.43946 -0.04356,-2.94042 -0.08712,-0.50096 -0.23959,-0.74055 -0.500961,-0.74055 -0.261371,0 -0.392056,0.0218 -0.392056,0.0436 z m -1.089045,9.60538 c -0.457399,0.37028 -0.784113,0.82767 -1.001922,1.3722 -0.217809,0.54452 -0.304932,1.08904 -0.26137,1.59 0.02178,0.50096 0.174247,0.95836 0.435618,1.3722 0.26137,0.41384 0.631646,0.69699 1.110825,0.82767 0.370276,0.0871 0.762332,-0.0653 1.154388,-0.43561 0.392056,-0.37028 0.696989,-0.89302 0.914798,-1.56823 0.06534,-0.21781 0.152466,-0.41384 0.23959,-0.60986 0.08712,-0.17425 0.174247,-0.26138 0.217809,-0.26138 0.08712,0 0.326713,0.23959 0.675208,0.74056 0.326713,0.50096 0.74055,0.91479 1.21973,1.28507 0.283152,0.21781 0.47918,0.32671 0.609865,0.34849 0.130686,0.0218 0.261371,-0.0218 0.435618,-0.17424 0.152466,-0.15247 0.152466,-0.3485 0.02178,-0.58809 -0.152466,-0.21781 -0.566303,-0.67521 -1.241511,-1.39398 -1.067264,-1.06726 -1.720691,-1.76425 -1.9385,-2.11274 -0.261371,-0.37028 -0.696989,-0.58809 -1.263292,-0.67521 -0.566304,-0.0871 -1.023703,0 -1.328634,0.28315 z m 1.372196,1.54644 c 0,0.4574 -0.108904,0.9148 -0.304932,1.32864 -0.196028,0.43562 -0.392056,0.65343 -0.609865,0.65343 -0.217809,0 -0.370276,-0.15247 -0.457399,-0.4574 -0.08712,-0.28315 -0.06534,-0.65343 0.04356,-1.06727 0.08712,-0.41383 0.26137,-0.74055 0.522741,-1.00192 0.217809,-0.28315 0.413837,-0.39205 0.566304,-0.28315 0.152466,0.1089 0.239589,0.37028 0.239589,0.82767 z"
         id="path3259" />
      <path
         d="m 21.155739,144.02567 v 19.99487 h 3.680972 v -8.01537 c 0.718769,0 1.306854,-0.0218 1.764253,-0.0218 0.479179,-0.0218 1.089045,-0.0654 1.851376,-0.13069 0.762331,-0.0871 1.393978,-0.19603 1.894938,-0.34849 0.522742,-0.15247 1.067264,-0.37028 1.677129,-0.65343 0.588085,-0.30493 1.067264,-0.65343 1.43754,-1.06727 0.348494,-0.41383 0.653427,-0.93657 0.893017,-1.59 0.23959,-0.63165 0.370275,-1.3722 0.370275,-2.17809 0,-0.80589 -0.130685,-1.54644 -0.370275,-2.17809 -0.23959,-0.65343 -0.544523,-1.17617 -0.893017,-1.59001 -0.370276,-0.41383 -0.849455,-0.76233 -1.43754,-1.06726 -0.609865,-0.28315 -1.176168,-0.50096 -1.677129,-0.65343 -0.47918,-0.15246 -1.110826,-0.26137 -1.894938,-0.32671 -0.762331,-0.0871 -1.372197,-0.13069 -1.829596,-0.13069 -0.457398,-0.0218 -1.045483,-0.0436 -1.786033,-0.0436 z m 3.680972,8.69058 v -5.37988 h 0.98014 c 0.71877,0 1.328635,0 1.786034,0.0436 0.500961,0.0218 0.958359,0.1089 1.415758,0.21781 0.457399,0.0871 0.827675,0.23959 1.067264,0.43562 0.283152,0.19603 0.47918,0.4574 0.631646,0.78411 0.152467,0.32671 0.23959,0.71877 0.23959,1.19795 0,0.47918 -0.08712,0.87123 -0.23959,1.21973 -0.152466,0.30493 -0.348494,0.5663 -0.631646,0.76233 -0.239589,0.19603 -0.609865,0.3485 -1.067264,0.4574 -0.457399,0.1089 -0.914797,0.17425 -1.415758,0.21781 -0.457399,0.0218 -1.067264,0.0436 -1.786034,0.0436 z"
         id="path3261" />
      <path
         d="m 49.710497,164.02054 c 1.502883,0 2.766175,-0.37028 3.833439,-1.08905 1.067264,-0.71877 1.851376,-1.67713 2.395899,-2.91864 0.522741,-1.24151 0.784112,-2.67905 0.784112,-4.31262 v -11.67456 h -3.593848 v 11.67456 c 0,0.50096 -0.04356,0.98014 -0.108905,1.45932 -0.06534,0.47918 -0.174247,0.93658 -0.348494,1.39398 -0.174247,0.43562 -0.392056,0.82768 -0.631646,1.15439 -0.261371,0.32671 -0.588085,0.58808 -0.980141,0.78411 -0.392056,0.19603 -0.849455,0.30493 -1.350416,0.30493 -0.609865,0 -1.154387,-0.15246 -1.611786,-0.43561 -0.457399,-0.30494 -0.805893,-0.69699 -1.067264,-1.21973 -0.23959,-0.50097 -0.435618,-1.04549 -0.544523,-1.61179 -0.108904,-0.5663 -0.174247,-1.17617 -0.174247,-1.8296 v -11.67456 h -3.593848 v 11.67456 c 0,1.63357 0.261371,3.07111 0.784112,4.31262 0.522742,1.24151 1.328635,2.19987 2.374118,2.91864 1.067264,0.71877 2.352337,1.08905 3.833438,1.08905 z"
         id="path3263" />
      <path
         d="m 69.618239,146.57404 c -0.02178,0 -0.04356,0 -0.04356,0 -0.108904,0 -0.196028,0.0871 -0.196028,0.17424 -0.02178,0.13069 -0.02178,0.23959 -0.02178,0.3485 0,0.21781 0.02178,0.43562 0.02178,0.65343 -0.02178,0.0871 -0.02178,0.17424 -0.02178,0.26137 0,0.15246 0,0.32671 0,0.47918 0,0.15246 0,0.30493 -0.02178,0.45739 -0.02178,0.17425 0,0.37028 -0.02178,0.54453 v 0.89301 c -0.06534,0.23959 -0.04356,0.47918 -0.06534,0.74055 -0.02178,0.10891 -0.02178,0.21781 -0.02178,0.32672 0,0.23959 0.02178,0.4574 0.02178,0.67521 0,0.30493 0,0.65342 0.02178,0.98014 0,0.28315 0.04356,0.5663 0.06534,0.82767 0,0.10891 -0.04356,0.21781 -0.04356,0.32671 0,0.0218 0,0.0653 0.02178,0.0871 0,0.0871 0.02178,0.17424 0.08712,0.26137 0.06534,0.13068 0.174247,0.19603 0.304933,0.19603 0.152466,0 0.23959,-0.13069 0.370275,-0.21781 0.06534,-0.0653 0.152466,-0.13069 0.217809,-0.23959 0,-0.0436 0,-0.0653 0,-0.0871 0,-0.13068 -0.04356,-0.26137 -0.04356,-0.41383 0.02178,-0.0218 0.02178,-0.0653 0.02178,-0.10891 0,-0.21781 -0.06534,-0.43562 -0.06534,-0.65342 0,-0.17425 0,-0.37028 0,-0.54453 0,-0.19602 0,-0.37027 -0.04356,-0.5663 v -0.89302 c 0.04356,-0.26137 0,-0.5663 0.04356,-0.89301 0.02178,-0.17425 0,-0.39206 0.02178,-0.56631 0.02178,-0.37027 0,-0.71877 0.02178,-1.08904 0.04356,-0.30493 0,-0.60987 0.04356,-0.93658 0,-0.0653 0,-0.13069 0,-0.17425 0,-0.15246 -0.02178,-0.28315 -0.04356,-0.41384 -0.02178,-0.15246 -0.174247,-0.28315 -0.326713,-0.34849 -0.08712,-0.0436 -0.152467,-0.0871 -0.23959,-0.0871 -0.02178,0 -0.04356,0 -0.06534,0 z m -0.653427,11.23894 c -0.174247,0.0653 -0.370275,0.13069 -0.47918,0.28315 -0.217809,0.23959 -0.348494,0.52274 -0.50096,0.8059 -0.06534,0.19602 -0.130686,0.41383 -0.130686,0.63164 0,0.0653 0,0.10891 0,0.15247 0.06534,0.30493 0.152467,0.65343 0.47918,0.82767 0.174247,0.0871 0.370275,0.15247 0.566304,0.15247 0.108904,0 0.152466,-0.0653 0.217809,-0.0871 0.283151,-0.15246 0.50096,-0.32671 0.675207,-0.58808 0.130686,-0.1089 0.196028,-0.30493 0.304933,-0.41384 0.06534,0.0218 0.130685,0.10891 0.152466,0.17425 0.152467,0.23959 0.283152,0.4574 0.47918,0.67521 0.174247,0.21781 0.392056,0.43562 0.696989,0.4574 0.02178,0 0.02178,0 0.04356,0 0.108904,0 0.174247,-0.10891 0.23959,-0.17425 0.02178,-0.0653 0.06534,-0.13069 0.06534,-0.19603 0,-0.0218 0,-0.0436 0,-0.0653 -0.06534,-0.1089 -0.196028,-0.17425 -0.261371,-0.30493 -0.08712,-0.17425 -0.239589,-0.32672 -0.326713,-0.54453 -0.06534,-0.15246 -0.196028,-0.30493 -0.217809,-0.50096 -0.08712,-0.17424 -0.217809,-0.32671 -0.348494,-0.47918 -0.08712,-0.15246 -0.304933,-0.19602 -0.413838,-0.34849 0,-0.0653 0.02178,-0.15247 0.02178,-0.21781 -0.06534,-0.0871 -0.152466,-0.15247 -0.23959,-0.19603 -0.130685,-0.13068 -0.304932,-0.15246 -0.50096,-0.15246 -0.174247,0.0218 -0.370275,0.0218 -0.522742,0.1089 z m 0.196028,0.98014 c 0.08712,-0.0871 0.217809,-0.15247 0.326714,-0.17425 0.08712,0.0218 0.130685,0.15247 0.130685,0.23959 -0.08712,0.28316 -0.23959,0.54453 -0.50096,0.76234 -0.04356,0.0871 -0.108905,0.13068 -0.196029,0.13068 -0.02178,0 -0.02178,0 -0.04356,0 -0.04356,-0.0436 -0.06534,-0.13068 -0.06534,-0.19603 0,-0.0436 0,-0.1089 0.04356,-0.15246 0.04356,-0.19603 0.174247,-0.41384 0.304932,-0.60987 z"
         id="path3265" />
      <path
         d="m -21.49126,185.54007 c 0.261371,1.69891 1.045483,3.09288 2.330556,4.13837 1.328635,1.04548 2.89686,1.54644 4.726455,1.54644 1.894939,0 3.463163,-0.50096 4.7264555,-1.54644 1.2850731,-1.02371 1.9167191,-2.3959 1.9167191,-4.13837 0,-0.58809 -0.065343,-1.15439 -0.2178089,-1.65535 -0.1306854,-0.50096 -0.3267135,-0.95836 -0.5663034,-1.30686 -0.217809,-0.39205 -0.5227416,-0.74055 -0.8930169,-1.06726 -0.3702753,-0.32671 -0.7405504,-0.60987 -1.1108254,-0.82768 -0.370276,-0.23959 -0.805894,-0.45739 -1.306854,-0.69698 -0.283152,-0.13069 -0.696989,-0.30494 -1.241512,-0.50096 -0.544522,-0.21781 -1.023702,-0.39206 -1.45932,-0.56631 -0.413837,-0.17425 -0.827674,-0.37027 -1.263292,-0.60986 -0.435618,-0.23959 -0.762331,-0.50096 -1.001921,-0.8059 -0.23959,-0.28315 -0.348495,-0.60986 -0.348495,-0.95836 0,-0.76233 0.23959,-1.28507 0.762332,-1.61178 0.522741,-0.3485 1.176168,-0.50096 2.003842,-0.50096 1.285073,0 2.134529,0.50096 2.570147,1.52466 l 3.5938479,-0.67521 c -0.3920562,-1.15439 -1.1543877,-2.11275 -2.2869949,-2.87508 -1.110825,-0.76233 -2.417679,-1.15438 -3.877,-1.15438 -0.827674,0 -1.633567,0.13068 -2.374118,0.34849 -0.74055,0.21781 -1.415758,0.52274 -2.025623,0.95836 -0.609865,0.41384 -1.089045,0.98014 -1.43754,1.67713 -0.370275,0.67521 -0.544522,1.43754 -0.544522,2.30877 0,0.67521 0.108905,1.2633 0.304933,1.78604 0.196028,0.54452 0.457398,0.98014 0.827674,1.37219 0.392056,0.3485 0.74055,0.65343 1.110826,0.89302 0.348494,0.23959 0.805893,0.47918 1.328634,0.71877 0.392057,0.19603 0.871236,0.39206 1.415759,0.60987 0.544522,0.2178 1.001921,0.39205 1.372197,0.54452 0.392056,0.13068 0.784112,0.30493 1.197949,0.52274 0.413837,0.21781 0.740551,0.43562 0.98014,0.65343 0.261371,0.21781 0.47918,0.47918 0.631647,0.80589 0.174247,0.32671 0.26137,0.69699 0.26137,1.08905 0,0.76233 -0.283151,1.35041 -0.805893,1.82959 -0.522742,0.4574 -1.285073,0.69699 -2.243433,0.69699 -0.958359,0 -1.742471,-0.30493 -2.330556,-0.87124 -0.588084,-0.58808 -0.98014,-1.32863 -1.197949,-2.19987 z"
         id="path3267" />
      <path
         d="m 0.39854369,171.2518 v 19.97308 H 13.88092 v -3.28892 H 4.0577347 V 171.2518 Z"
         id="path3269" />
      <path
         d="m 20.676561,171.2518 v 3.31069 h 6.534269 v 16.68417 h 3.680972 v -16.68417 h 6.272899 v -3.31069 z"
         id="path3271" />
      <path
         d="m 42.45746,171.2518 v 3.31069 h 6.534269 v 16.68417 h 3.680972 V 174.56249 H 58.9456 v -3.31069 z"
         id="path3273" />
      <path
         d="m 66.830286,187.04295 h 1.742472 v 1.74247 h 1.742472 v -1.74247 h -1.742472 v -1.74247 h 1.742472 v 1.74247 h 1.742472 v 1.74247 h 1.742471 v -1.74247 h -1.742471 v -1.74247 H 70.31523 V 183.558 h -1.742472 v 1.74248 h -1.742472 z m 3.484944,-6.96989 v -1.74247 -1.74247 -1.74248 -1.74247 h -1.742472 v 1.74247 1.74248 1.74247 1.74247 1.74247 h 1.742472 z"
         id="path3275" />
      <path
         d="M 6.9110043,198.47792 V 218.451 h 3.6809717 v -6.79564 l 1.611787,-1.80781 6.229337,8.60345 h 4.61755 l -8.037151,-11.06469 7.623314,-8.90839 h -4.595769 l -7.449068,8.55989 v -8.55989 z"
         id="path3277" />
      <path
         d="m 28.648342,208.10508 c 0,0.91479 0.08712,1.82959 0.26137,2.74439 0.196028,0.9148 0.500961,1.80781 0.914798,2.67905 0.413837,0.87124 0.914798,1.65535 1.524663,2.30878 0.609865,0.6752 1.372197,1.19795 2.308775,1.61178 0.936579,0.41384 1.960281,0.60987 3.114669,0.60987 1.132607,0 2.17809,-0.19603 3.114668,-0.60987 0.936579,-0.41383 1.698911,-0.93658 2.308776,-1.61178 0.609865,-0.65343 1.110826,-1.43754 1.524663,-2.30878 0.413837,-0.87124 0.718769,-1.76425 0.893017,-2.65727 0.174247,-0.9148 0.26137,-1.82959 0.26137,-2.76617 0,-0.93658 -0.08712,-1.87316 -0.26137,-2.76618 -0.174248,-0.9148 -0.47918,-1.80781 -0.893017,-2.70083 -0.413837,-0.89302 -0.914798,-1.65535 -1.524663,-2.30877 -0.609865,-0.67521 -1.372197,-1.21973 -2.308776,-1.61179 -0.936578,-0.41384 -1.982061,-0.63165 -3.114668,-0.63165 -1.154388,0 -2.17809,0.21781 -3.114669,0.63165 -0.936578,0.39206 -1.69891,0.93658 -2.308775,1.61179 -0.609865,0.65342 -1.110826,1.41575 -1.524663,2.30877 -0.413837,0.89302 -0.71877,1.78603 -0.914798,2.70083 -0.174247,0.89302 -0.26137,1.8296 -0.26137,2.76618 z m 12.502236,0 c 0,0.6752 -0.04356,1.32863 -0.130686,1.96028 -0.08712,0.60986 -0.23959,1.21973 -0.457399,1.80781 -0.196028,0.60987 -0.479179,1.11083 -0.805893,1.56823 -0.304933,0.43561 -0.71877,0.78411 -1.241511,1.06726 -0.522742,0.26137 -1.089045,0.39206 -1.742472,0.39206 -0.653427,0 -1.21973,-0.13069 -1.742472,-0.39206 -0.522742,-0.28315 -0.936579,-0.63165 -1.263292,-1.06726 -0.326714,-0.4574 -0.588084,-0.95836 -0.805893,-1.56823 -0.196029,-0.58808 -0.348495,-1.19795 -0.435618,-1.80781 -0.08712,-0.63165 -0.130686,-1.28508 -0.130686,-1.96028 0,-0.69699 0.04356,-1.35042 0.130686,-1.96028 0.08712,-0.63165 0.239589,-1.24152 0.435618,-1.85138 0.217809,-0.60987 0.479179,-1.13261 0.805893,-1.56823 0.326713,-0.43561 0.74055,-0.80589 1.263292,-1.06726 0.500961,-0.26137 1.089045,-0.39206 1.742472,-0.39206 0.805893,0 1.481101,0.19603 2.090966,0.58809 0.588084,0.41384 1.045483,0.93658 1.350416,1.61179 0.326713,0.6752 0.566303,1.41575 0.71877,2.17809 0.130685,0.76233 0.217809,1.59 0.217809,2.46124 z"
         id="path3279" />
      <path
         d="m 72.057673,221.23896 h 1.742472 v -1.74247 h -1.742472 v -1.74248 h -1.742472 v -1.74247 h -1.742472 v -1.74247 h -1.742471 v -1.74247 h -1.742472 -1.742472 v -1.74247 H 61.602842 59.86037 v 1.74247 h -1.742472 v 1.74247 h -1.742472 v 1.74247 1.74247 h 1.742472 v 1.74248 h 1.742472 v 1.74247 h 1.742472 1.742472 v -1.74247 h 1.742472 v -1.74248 h 1.742472 1.742471 v 1.74248 h 1.742472 v 1.74247 z m -8.712359,-5.22742 v 1.74247 H 61.602842 59.86037 v -1.74247 -1.74247 h 1.742472 1.742472 z m 0,-10.45483 v -1.74247 -1.74247 -1.74247 -1.74248 -1.74247 -1.74247 H 61.602842 59.86037 v 1.74247 1.74247 1.74248 1.74247 1.74247 1.74247 1.74247 h 1.742472 1.742472 z"
         id="path3281" />
      <path
         d="m -70.628985,225.70404 v 19.97309 h 3.680972 v -6.79564 l 1.611787,-1.80782 6.229337,8.60346 h 4.61755 l -8.037151,-11.0647 7.623314,-8.90839 h -4.595769 l -7.449068,8.5599 v -8.5599 z"
         id="path3283" />
      <path
         d="m -47.519451,225.70404 v 19.97309 h 13.482377 v -3.28892 h -9.801405 v -5.29276 h 8.930169 v -3.28891 h -8.930169 v -4.7918 h 9.801405 v -3.3107 z"
         id="path3285" />
      <path
         d="m -27.241434,225.70404 v 3.3107 h 6.53427 v 16.68417 h 3.680972 v -16.68417 h 6.272899 v -3.3107 z"
         id="path3287" />
      <path
         d="m -3.9576527,225.70404 v 19.97309 H 9.5247238 v -3.28892 h -9.8014046 v -5.29276 h 8.9301686 v -3.28891 h -8.9301686 v -4.7918 h 9.8014046 v -3.3107 z"
         id="path3289" />
      <path
         d="m 17.714342,239.99231 c 0.261371,1.69891 1.045483,3.09289 2.330556,4.13837 1.328635,1.04549 2.89686,1.54645 4.726455,1.54645 1.894938,0 3.463163,-0.50096 4.726455,-1.54645 1.285073,-1.0237 1.916719,-2.3959 1.916719,-4.13837 0,-0.58808 -0.06534,-1.15438 -0.217809,-1.65535 -0.130685,-0.50096 -0.326713,-0.95836 -0.566303,-1.30685 -0.217809,-0.39206 -0.522742,-0.74055 -0.893017,-1.06726 -0.370275,-0.32672 -0.74055,-0.60987 -1.110826,-0.82768 -0.370275,-0.23959 -0.805893,-0.4574 -1.306854,-0.69699 -0.283151,-0.13068 -0.696988,-0.30493 -1.241511,-0.50096 -0.544522,-0.21781 -1.023702,-0.39205 -1.45932,-0.5663 -0.413837,-0.17425 -0.827674,-0.37028 -1.263292,-0.60987 -0.435618,-0.23959 -0.762332,-0.50096 -1.001922,-0.80589 -0.23959,-0.28315 -0.348494,-0.60986 -0.348494,-0.95836 0,-0.76233 0.23959,-1.28507 0.762331,-1.61179 0.522742,-0.34849 1.176169,-0.50096 2.003843,-0.50096 1.285073,0 2.134528,0.50096 2.570146,1.52467 l 3.593849,-0.67521 c -0.392057,-1.15439 -1.154388,-2.11275 -2.286995,-2.87508 -1.110826,-0.76233 -2.41768,-1.15439 -3.877,-1.15439 -0.827674,0 -1.633567,0.13069 -2.374118,0.3485 -0.74055,0.21781 -1.415758,0.52274 -2.025624,0.95836 -0.609865,0.41383 -1.089044,0.98014 -1.437539,1.67713 -0.370275,0.6752 -0.544522,1.43754 -0.544522,2.30877 0,0.67521 0.108904,1.26329 0.304932,1.78604 0.196028,0.54452 0.457399,0.98014 0.827674,1.37219 0.392057,0.3485 0.740551,0.65343 1.110826,0.89302 0.348495,0.23959 0.805894,0.47918 1.328635,0.71877 0.392056,0.19603 0.871236,0.39205 1.415759,0.60986 0.544522,0.21781 1.001921,0.39206 1.372196,0.54453 0.392056,0.13068 0.784113,0.30493 1.19795,0.52274 0.413837,0.21781 0.74055,0.43562 0.98014,0.65342 0.261371,0.21781 0.47918,0.47918 0.631646,0.8059 0.174247,0.32671 0.261371,0.69699 0.261371,1.08904 0,0.76233 -0.283152,1.35042 -0.805893,1.8296 -0.522742,0.4574 -1.285073,0.69699 -2.243433,0.69699 -0.958359,0 -1.742472,-0.30494 -2.330556,-0.87124 -0.588084,-0.58808 -0.980141,-1.32863 -1.19795,-2.19987 z"
         id="path3291" />
      <path
         d="M 44.504848,245.67713 H 48.18582 V 225.70404 H 44.504848 Z"
         id="path3293" />
      <path
         d="m 66.13328,226.81487 c -0.26137,0.0436 -0.435618,0.17425 -0.479179,0.41384 -0.04356,0.23959 -0.06534,0.95836 -0.06534,2.13452 0,1.30686 -0.04356,1.96028 -0.130685,1.96028 -0.08712,0 -0.130686,0.32672 -0.130686,0.93658 0,0.63165 0.04356,0.93658 0.130686,0.93658 0.08712,0 0.130685,0.26137 0.130685,0.74055 v 0.76233 h 0.805893 0.805893 v -3.04932 c 0,-2.02563 0.02178,-3.04933 0.108905,-3.04933 0.08712,0 0.130685,-0.28315 0.130685,-0.87123 v -0.84946 l -0.370275,-0.0871 c -0.283152,-0.0436 -0.435618,-0.0436 -0.47918,-0.0436 -0.02178,0 -0.04356,0.0218 -0.08712,0.0218 -0.04356,0 -0.108905,0.0218 -0.174248,0.0218 -0.08712,0.0218 -0.152466,0.0218 -0.196028,0.0218 z m -3.419601,13.26457 c 0,1.78603 0,2.85329 0.02178,3.24535 0.02178,0.39206 0.08712,0.60987 0.196028,0.63165 0.304933,0.0871 2.722613,0.13068 7.296601,0.0871 l 3.332478,-0.0218 -0.04356,-0.78411 c -0.02178,-0.37028 -0.04356,-0.58809 -0.08712,-0.65343 -0.04356,-0.0653 -0.152467,-0.1089 -0.326714,-0.13069 -0.457399,-0.0218 -1.023702,-0.0653 -1.69891,-0.1089 l -1.350416,-0.0871 v -0.41384 c 0,-0.28315 -0.04356,-0.43562 -0.130685,-0.43562 -0.08712,0 -0.108905,-0.0436 -0.108905,-0.17425 0,-0.13068 0.02178,-0.19602 0.108905,-0.19602 0.08712,0 0.130685,-0.54453 0.130685,-1.67713 0,-1.11083 -0.04356,-1.67713 -0.130685,-1.67713 -0.08712,0 -0.108905,-0.17425 -0.108905,-0.54452 0,-0.43562 -0.196028,-0.69699 -0.544522,-0.78412 -0.348495,-0.0871 -1.45932,-0.13068 -3.332478,-0.13068 l -3.223573,0.0218 z m 5.488787,-1.52467 c 0,0.3485 0.02178,0.50096 0.108904,0.50096 0.08712,0 0.130686,0.0871 0.130686,0.23959 0,0.17425 -0.04356,0.28316 -0.130686,0.32672 -0.08712,0.0436 -0.108904,0.47918 -0.108904,1.35041 v 0.28315 0.50097 c 0,0.0871 -0.04356,0.19602 -0.08712,0.30493 -0.04356,0.1089 -0.08712,0.17425 -0.130685,0.19603 -0.04356,0.0436 -0.130686,0.0653 -0.304933,0.0871 -0.174247,0.0218 -0.348494,0.0218 -0.47918,0.0218 -0.152466,0 -0.413837,-0.0218 -0.762331,-0.0436 -0.217809,0 -0.370275,0 -0.47918,-0.0218 l -1.633567,-0.0436 v -2.04741 -2.02562 l 1.481101,-0.0436 c 0.609865,0 1.241511,-0.0218 1.916719,-0.0653 0.217809,0 0.370275,0 0.413837,0.0436 0.04356,0.0436 0.06534,0.19602 0.06534,0.43561 z"
         id="path3295" />
      <path
         d="m -26.544445,272.90325 h 3.680972 v -13.32991 l 7.797562,13.32991 h 3.615629 v -19.97308 h -3.680972 v 12.91607 l -7.841124,-12.91607 h -3.572067 z"
         id="path3297" />
      <path
         d="m -5.3298494,262.55732 c 0,0.9148 0.087124,1.8296 0.2613708,2.7444 0.1960281,0.9148 0.5009607,1.80781 0.9147978,2.67905 0.4138371,0.87123 0.9147977,1.65535 1.5246629,2.30877 0.6098652,0.67521 1.3721966,1.19795 2.3087753,1.61179 0.93657866,0.41384 1.9602809,0.60987 3.1146686,0.60987 1.1326067,0 2.1780899,-0.19603 3.1146685,-0.60987 0.9365787,-0.41384 1.6989102,-0.93658 2.3087753,-1.61179 0.6098652,-0.65342 1.1108259,-1.43754 1.524663,-2.30877 0.4138372,-0.87124 0.7187692,-1.76425 0.8930172,-2.65727 0.174247,-0.9148 0.26137,-1.8296 0.26137,-2.76618 0,-0.93657 -0.08712,-1.87315 -0.26137,-2.76617 -0.174248,-0.9148 -0.47918,-1.80781 -0.8930172,-2.70083 -0.4138371,-0.89302 -0.9147978,-1.65535 -1.524663,-2.30878 -0.6098651,-0.6752 -1.3721966,-1.21973 -2.3087753,-1.61178 -0.9365786,-0.41384 -1.9820618,-0.63165 -3.1146685,-0.63165 -1.1543877,0 -2.17808994,0.21781 -3.1146686,0.63165 -0.9365787,0.39205 -1.6989101,0.93658 -2.3087753,1.61178 -0.6098652,0.65343 -1.1108258,1.41576 -1.5246629,2.30878 -0.4138371,0.89302 -0.7187697,1.78603 -0.9147978,2.70083 -0.1742472,0.89302 -0.2613708,1.8296 -0.2613708,2.76617 z m 12.5022361,0 c 0,0.67521 -0.043562,1.32864 -0.1306854,1.96029 -0.087124,0.60986 -0.2395899,1.21973 -0.4573989,1.80781 -0.1960281,0.60986 -0.4791798,1.11083 -0.8058933,1.56822 -0.3049326,0.43562 -0.7187696,0.78412 -1.2415112,1.06727 -0.5227416,0.26137 -1.089045,0.39205 -1.7424719,0.39205 -0.653427,0 -1.2197304,-0.13068 -1.742472,-0.39205 -0.52274154,-0.28315 -0.93657862,-0.63165 -1.2632921,-1.06727 -0.32671349,-0.45739 -0.58808428,-0.95836 -0.8058933,-1.56822 -0.1960281,-0.58808 -0.3484944,-1.19795 -0.4356179,-1.80781 -0.087124,-0.63165 -0.1306854,-1.28508 -0.1306854,-1.96029 0,-0.69698 0.043562,-1.35041 0.1306854,-1.96028 0.087123,-0.63164 0.2395898,-1.24151 0.4356179,-1.85137 0.21780902,-0.60987 0.47917981,-1.13261 0.8058933,-1.56823 0.32671348,-0.43562 0.74055056,-0.80589 1.2632921,-1.06726 0.5009607,-0.26137 1.089045,-0.39206 1.742472,-0.39206 0.8058932,0 1.4811011,0.19603 2.0909663,0.58809 0.5880842,0.41383 1.0454831,0.93657 1.3504157,1.61178 0.3267135,0.67521 0.5663034,1.41576 0.7187697,2.17809 0.1306854,0.76233 0.217809,1.59001 0.217809,2.46124 z"
         id="path3299" />
      <path
         d="m 17.779685,252.93017 v 19.99486 h 3.680971 v -8.01537 c 0.71877,0 1.306854,-0.0218 1.764253,-0.0218 0.47918,-0.0218 1.089045,-0.0653 1.851377,-0.13068 0.762331,-0.0871 1.393977,-0.19603 1.894938,-0.3485 0.522741,-0.15247 1.067264,-0.37027 1.677129,-0.65343 0.588084,-0.30493 1.067264,-0.65342 1.437539,-1.06726 0.348495,-0.41384 0.653427,-0.93658 0.893017,-1.59001 0.23959,-0.63164 0.370276,-1.37219 0.370276,-2.17809 0,-0.80589 -0.130686,-1.54644 -0.370276,-2.17809 -0.23959,-0.65342 -0.544522,-1.17616 -0.893017,-1.59 -0.370275,-0.41384 -0.849455,-0.76233 -1.437539,-1.06727 -0.609865,-0.28315 -1.176168,-0.50096 -1.677129,-0.65342 -0.47918,-0.15247 -1.110826,-0.26137 -1.894938,-0.32672 -0.762332,-0.0871 -1.372197,-0.13068 -1.829596,-0.13068 -0.457399,-0.0218 -1.045483,-0.0436 -1.786034,-0.0436 z m 3.680971,8.69058 v -5.37989 h 0.980141 c 0.71877,0 1.328635,0 1.786034,0.0436 0.50096,0.0218 0.958359,0.1089 1.415758,0.2178 0.457399,0.0871 0.827674,0.23959 1.067264,0.43562 0.283152,0.19603 0.47918,0.4574 0.631646,0.78411 0.152466,0.32672 0.23959,0.71877 0.23959,1.19795 0,0.47918 -0.08712,0.87124 -0.23959,1.21973 -0.152466,0.30494 -0.348494,0.56631 -0.631646,0.76234 -0.23959,0.19602 -0.609865,0.34849 -1.067264,0.45739 -0.457399,0.10891 -0.914798,0.17425 -1.415758,0.21781 -0.457399,0.0218 -1.067264,0.0436 -1.786034,0.0436 z"
         id="path3301" />
      <path
         d="m 46.334443,272.92503 c 1.502882,0 2.766174,-0.37027 3.833438,-1.08904 1.067264,-0.71877 1.851377,-1.67713 2.395899,-2.91864 0.522742,-1.24151 0.784113,-2.67905 0.784113,-4.31262 v -11.67456 h -3.593849 v 11.67456 c 0,0.50096 -0.04356,0.98014 -0.108904,1.45932 -0.06534,0.47918 -0.174247,0.93658 -0.348495,1.39398 -0.174247,0.43561 -0.392056,0.82767 -0.631646,1.15438 -0.26137,0.32672 -0.588084,0.58809 -0.98014,0.78412 -0.392056,0.19602 -0.849455,0.30493 -1.350416,0.30493 -0.609865,0 -1.154387,-0.15247 -1.611786,-0.43562 -0.457399,-0.30493 -0.805894,-0.69699 -1.067264,-1.21973 -0.23959,-0.50096 -0.435618,-1.04548 -0.544523,-1.61179 -0.108904,-0.5663 -0.174247,-1.17616 -0.174247,-1.82959 v -11.67456 h -3.593848 v 11.67456 c 0,1.63357 0.26137,3.07111 0.784112,4.31262 0.522742,1.24151 1.328635,2.19987 2.374118,2.91864 1.067264,0.71877 2.352337,1.08904 3.833438,1.08904 z"
         id="path3303" />
      <path
         d="m 69.26973,255.04291 c -1.263292,0.74055 -2.069186,1.24152 -2.41768,1.54645 -0.348494,0.28315 -0.522742,0.5663 -0.522742,0.84945 0,0.26137 0.108905,0.52274 0.370276,0.76233 0.23959,0.23959 0.522741,0.3485 0.827674,0.3485 0.304933,0 0.805893,-0.21781 1.524663,-0.69699 0.653427,-0.43562 1.241511,-0.80589 1.764253,-1.06726 0.392056,-0.17425 0.849455,-0.50096 1.350415,-0.9148 0.47918,-0.43562 0.740551,-0.71877 0.740551,-0.89302 0,-0.0871 -0.108904,-0.28315 -0.283152,-0.5663 -0.304932,-0.37028 -0.675208,-0.52274 -1.089045,-0.4574 -0.413837,0.0871 -1.176168,0.43562 -2.265213,1.08904 z m -4.878922,4.98783 c -0.98014,0.17425 -1.873157,0.5663 -2.657269,1.21973 -0.784113,0.65343 -1.393978,1.50288 -1.829596,2.5048 -0.784112,1.74248 -0.958359,3.28892 -0.544522,4.63934 0.392056,1.35041 1.306854,2.22165 2.722612,2.6137 0.435618,0.13069 0.805893,0.17425 1.154388,0.17425 0.348494,-0.0218 0.849455,-0.0871 1.546444,-0.23959 1.437539,-0.30493 2.43946,-0.5663 3.005764,-0.74055 0.544522,-0.19603 1.350415,-0.54452 2.395899,-1.08905 1.393977,-0.69698 2.112747,-1.04548 2.17809,-1.04548 0.06534,0 0.217809,0.30493 0.457398,0.87124 0.23959,0.58808 0.413837,1.08904 0.500961,1.4811 0.08712,0.39205 0.261371,0.65343 0.566303,0.78411 0.283152,0.15247 0.609866,0.15247 1.001922,0.0218 0.196028,-0.0871 0.326713,-0.19603 0.392056,-0.34849 0.06534,-0.15247 0.108904,-0.43562 0.108904,-0.87124 0,-0.65343 -0.152466,-1.30685 -0.435617,-2.00384 -0.348495,-0.78411 -0.544523,-1.28507 -0.544523,-1.4811 0,-0.21781 0.152466,-0.4574 0.457399,-0.74055 0.762331,-0.71877 1.372197,-1.56823 1.829595,-2.57015 0.435618,-0.98014 0.544523,-1.69891 0.304933,-2.15631 -0.174247,-0.30493 -0.435618,-0.4574 -0.805893,-0.47918 -0.392056,-0.0218 -0.71877,0.0871 -1.023702,0.30494 -0.304933,0.23958 -0.457399,0.52274 -0.457399,0.87123 0,0.30493 -0.23959,0.78411 -0.71877,1.45932 l -0.762332,0.95836 -1.45932,-1.52466 c -0.435618,-0.39206 -0.893017,-0.8059 -1.372196,-1.19795 -0.500961,-0.41384 -0.893017,-0.67521 -1.176169,-0.82768 -0.566303,-0.23959 -1.328635,-0.43561 -2.330556,-0.54452 -1.001921,-0.13068 -1.829596,-0.13068 -2.504804,-0.0436 z m 3.223574,2.41768 c 0.871235,0.39206 1.720691,1.00192 2.548365,1.8296 0.827674,0.82767 1.110826,1.39397 0.893017,1.65534 -0.196029,0.23959 -1.001922,0.69699 -2.439461,1.35042 -1.437539,0.67521 -2.308775,1.00192 -2.613708,1.00192 -0.392056,0 -0.631646,0.0871 -0.696989,0.23959 -0.108904,0.17425 -0.631646,0.26137 -1.590005,0.21781 -0.95836,-0.0218 -1.524663,-0.13069 -1.742472,-0.30493 -0.23959,-0.17425 -0.370276,-0.50096 -0.413837,-0.98014 -0.04356,-0.50096 0,-1.00192 0.108904,-1.56823 0.108905,-0.54452 0.283152,-1.08904 0.544523,-1.63357 0.26137,-0.52274 0.544522,-0.91479 0.849455,-1.17616 0.50096,-0.43562 1.21973,-0.71877 2.17809,-0.84946 0.936578,-0.13068 1.720691,-0.0436 2.374118,0.21781 z"
         id="path3305" />
      <path
         d="m -4.0012145,280.15629 v 19.99487 h 3.6809719 v -8.01537 c 0.71876967,0 1.30685394,-0.0218 1.7642528,-0.0218 0.4791798,-0.0218 1.089045,-0.0653 1.8513764,-0.13068 0.7623315,-0.0871 1.3939776,-0.19603 1.8949383,-0.3485 0.5227415,-0.15246 1.067264,-0.37027 1.6771292,-0.65342 0.5880843,-0.30494 1.067264,-0.65343 1.4375393,-1.06727 0.3484944,-0.41383 0.653427,-0.93658 0.8930169,-1.59 0.2395899,-0.63165 0.3702753,-1.3722 0.3702753,-2.17809 0,-0.8059 -0.1306854,-1.54645 -0.3702753,-2.17809 -0.2395899,-0.65343 -0.5445225,-1.17617 -0.8930169,-1.59001 -0.3702753,-0.41383 -0.849455,-0.76233 -1.4375393,-1.06726 -0.6098652,-0.28315 -1.1761686,-0.50096 -1.6771292,-0.65343 -0.4791798,-0.15246 -1.1108259,-0.26137 -1.8949383,-0.32671 -0.7623314,-0.0871 -1.3721966,-0.13069 -1.8295955,-0.13069 -0.4573989,-0.0218 -1.04548313,-0.0436 -1.7860337,-0.0436 z m 3.6809719,8.69058 v -5.37988 h 0.98014046 c 0.71876964,0 1.32863484,0 1.78603374,0.0436 0.5009607,0.0218 0.9583595,0.1089 1.4157584,0.21781 0.4573989,0.0871 0.8276742,0.23959 1.0672641,0.43562 0.2831517,0.19602 0.4791798,0.45739 0.631646,0.78411 0.1524663,0.32671 0.2395899,0.71877 0.2395899,1.19795 0,0.47918 -0.087124,0.87123 -0.2395899,1.21973 -0.1524662,0.30493 -0.3484943,0.5663 -0.631646,0.76233 -0.2395899,0.19603 -0.6098652,0.34849 -1.0672641,0.4574 -0.4573989,0.1089 -0.9147977,0.17425 -1.4157584,0.21781 -0.4573989,0.0218 -1.0672641,0.0436 -1.78603374,0.0436 z"
         id="path3307" />
      <path
         d="m 16.45105,289.78345 c 0,0.9148 0.08712,1.82959 0.26137,2.74439 0.196029,0.9148 0.500961,1.80782 0.914798,2.67905 0.413837,0.87124 0.914798,1.65535 1.524663,2.30878 0.609865,0.67521 1.372197,1.19795 2.308775,1.61178 0.936579,0.41384 1.960281,0.60987 3.114669,0.60987 1.132607,0 2.17809,-0.19603 3.114669,-0.60987 0.936578,-0.41383 1.69891,-0.93657 2.308775,-1.61178 0.609865,-0.65343 1.110826,-1.43754 1.524663,-2.30878 0.413837,-0.87123 0.718769,-1.76425 0.893017,-2.65727 0.174247,-0.9148 0.26137,-1.82959 0.26137,-2.76617 0,-0.93658 -0.08712,-1.87316 -0.26137,-2.76618 -0.174248,-0.91479 -0.47918,-1.80781 -0.893017,-2.70083 -0.413837,-0.89301 -0.914798,-1.65535 -1.524663,-2.30877 -0.609865,-0.67521 -1.372197,-1.21973 -2.308775,-1.61179 -0.936579,-0.41384 -1.982062,-0.63165 -3.114669,-0.63165 -1.154388,0 -2.17809,0.21781 -3.114669,0.63165 -0.936578,0.39206 -1.69891,0.93658 -2.308775,1.61179 -0.609865,0.65342 -1.110826,1.41576 -1.524663,2.30877 -0.413837,0.89302 -0.718769,1.78604 -0.914798,2.70083 -0.174247,0.89302 -0.26137,1.8296 -0.26137,2.76618 z m 12.502236,0 c 0,0.67521 -0.04356,1.32863 -0.130686,1.96028 -0.08712,0.60986 -0.23959,1.21973 -0.457399,1.80781 -0.196028,0.60987 -0.479179,1.11083 -0.805893,1.56823 -0.304932,0.43562 -0.718769,0.78411 -1.241511,1.06726 -0.522742,0.26137 -1.089045,0.39206 -1.742472,0.39206 -0.653427,0 -1.21973,-0.13069 -1.742472,-0.39206 -0.522741,-0.28315 -0.936579,-0.63164 -1.263292,-1.06726 -0.326714,-0.4574 -0.588084,-0.95836 -0.805893,-1.56823 -0.196028,-0.58808 -0.348495,-1.19795 -0.435618,-1.80781 -0.08712,-0.63165 -0.130686,-1.28507 -0.130686,-1.96028 0,-0.69699 0.04356,-1.35042 0.130686,-1.96028 0.08712,-0.63165 0.23959,-1.24151 0.435618,-1.85138 0.217809,-0.60986 0.479179,-1.13261 0.805893,-1.56822 0.326713,-0.43562 0.740551,-0.8059 1.263292,-1.06727 0.500961,-0.26137 1.089045,-0.39205 1.742472,-0.39205 0.805893,0 1.481101,0.19602 2.090966,0.58808 0.588085,0.41384 1.045483,0.93658 1.350416,1.61179 0.326714,0.6752 0.566303,1.41575 0.71877,2.17809 0.130685,0.76233 0.217809,1.59 0.217809,2.46124 z"
         id="path3309" />
      <path
         d="m 39.560584,280.15629 v 19.99487 h 3.680971 v -8.01537 c 0.71877,0 1.306854,-0.0218 1.764253,-0.0218 0.47918,-0.0218 1.089045,-0.0653 1.851377,-0.13068 0.762331,-0.0871 1.393977,-0.19603 1.894938,-0.3485 0.522742,-0.15246 1.067264,-0.37027 1.677129,-0.65342 0.588084,-0.30494 1.067264,-0.65343 1.43754,-1.06727 0.348494,-0.41383 0.653426,-0.93658 0.893016,-1.59 0.23959,-0.63165 0.370276,-1.3722 0.370276,-2.17809 0,-0.8059 -0.130686,-1.54645 -0.370276,-2.17809 -0.23959,-0.65343 -0.544522,-1.17617 -0.893016,-1.59001 -0.370276,-0.41383 -0.849456,-0.76233 -1.43754,-1.06726 -0.609865,-0.28315 -1.176168,-0.50096 -1.677129,-0.65343 -0.47918,-0.15246 -1.110826,-0.26137 -1.894938,-0.32671 -0.762332,-0.0871 -1.372197,-0.13069 -1.829596,-0.13069 -0.457399,-0.0218 -1.045483,-0.0436 -1.786034,-0.0436 z m 3.680971,8.69058 v -5.37988 h 0.980141 c 0.71877,0 1.328635,0 1.786034,0.0436 0.50096,0.0218 0.958359,0.1089 1.415758,0.21781 0.457399,0.0871 0.827674,0.23959 1.067264,0.43562 0.283152,0.19602 0.47918,0.45739 0.631646,0.78411 0.152467,0.32671 0.23959,0.71877 0.23959,1.19795 0,0.47918 -0.08712,0.87123 -0.23959,1.21973 -0.152466,0.30493 -0.348494,0.5663 -0.631646,0.76233 -0.23959,0.19603 -0.609865,0.34849 -1.067264,0.4574 -0.457399,0.1089 -0.914798,0.17425 -1.415758,0.21781 -0.457399,0.0218 -1.067264,0.0436 -1.786034,0.0436 z"
         id="path3311" />
      <path
         d="m 67.09164,281.57205 c -0.152466,0.0653 -0.304933,0.19603 -0.435618,0.34849 -0.130685,0.10891 -0.196028,0.32672 -0.217809,0.63165 -0.02178,0.30493 -0.04356,1.13261 -0.04356,2.48302 -0.02178,1.30686 -0.02178,2.13453 0,2.50481 0.02178,0.37027 0.08712,0.6752 0.196028,0.95835 0.108905,0.3485 0.23959,0.58809 0.413837,0.71877 0.152467,0.13069 0.392057,0.19603 0.740551,0.19603 0.392056,0 0.609865,-0.17424 0.675208,-0.50096 0.06534,-0.32671 0.108904,-1.45932 0.108904,-3.44138 v -3.52851 l -0.304932,-0.23959 c -0.348495,-0.26137 -0.71877,-0.30493 -1.132607,-0.13068 z m -2.265214,9.99743 c -0.936578,0.43562 -1.633567,1.04548 -2.090966,1.8296 -0.457399,0.78411 -0.588084,1.61178 -0.392056,2.46124 0.04356,0.23959 0.23959,0.52274 0.588084,0.80589 l 0.522742,0.4574 h 1.045483 c 0.675208,0 1.154388,-0.0653 1.415758,-0.17425 0.261371,-0.13068 0.609866,-0.37027 1.067264,-0.69698 0.457399,-0.32672 0.762332,-0.54453 0.893017,-0.69699 0.152467,-0.15247 0.261371,-0.23959 0.304933,-0.23959 0.04356,0 0.196028,0.19602 0.457399,0.58808 0.217809,0.39206 0.544522,0.78411 0.958359,1.15439 0.413837,0.39205 0.784113,0.65343 1.110826,0.78411 0.392056,0.17425 0.609865,0.28315 0.675208,0.32671 0.130685,0.0654 0.47918,0.0871 1.089045,0.0871 0.392056,0 0.653427,-0.0218 0.805893,-0.0436 0.130686,-0.0218 0.283152,-0.10891 0.413837,-0.21781 0.130686,-0.10891 0.217809,-0.21781 0.261371,-0.32672 0.04356,-0.1089 0.06534,-0.26137 0.06534,-0.50096 0,-0.41383 -0.08712,-0.69699 -0.217809,-0.84945 -0.152466,-0.15247 -0.413837,-0.21781 -0.805893,-0.21781 -0.348495,0 -0.71877,-0.0871 -1.067264,-0.23959 -0.348495,-0.15247 -0.631647,-0.37028 -0.827675,-0.60987 -0.174247,-0.21781 -0.304932,-0.37027 -0.370275,-0.43561 -0.130685,-0.10891 -0.174247,-0.17425 -0.174247,-0.23959 0,-0.0436 -0.108905,-0.21781 -0.283152,-0.52275 -0.174247,-0.28315 -0.283151,-0.47918 -0.283151,-0.58808 0,-0.1089 -0.108905,-0.28315 -0.283152,-0.54452 -0.04356,-0.0218 -0.130686,-0.15247 -0.261371,-0.37028 -0.152466,-0.19603 -0.261371,-0.34849 -0.304933,-0.43562 -0.217809,-0.32671 -0.522741,-0.5663 -0.893016,-0.69698 -0.370276,-0.13069 -0.893017,-0.19603 -1.590006,-0.17425 -0.500961,0 -0.849455,0.0218 -1.067264,0.0436 -0.217809,0.0436 -0.457399,0.13069 -0.762332,0.28315 z m 1.655349,1.89494 c 0,0.1089 -0.283152,0.39206 -0.827674,0.82767 -0.544523,0.4574 -0.871236,0.67521 -1.001922,0.67521 -0.04356,0 -0.04356,-0.0436 -0.02178,-0.1089 0.08712,-0.28315 0.23959,-0.52274 0.457399,-0.71877 0.108905,-0.10891 0.326714,-0.26137 0.675208,-0.4574 0.348494,-0.19603 0.544523,-0.28315 0.631646,-0.28315 0.02178,-0.0218 0.04356,-0.0218 0.06534,0 0,0.0218 0.02178,0.0436 0.02178,0.0653 z"
         id="path3313" />
      <path
         d="m 26.426693,321.67068 c 0.261371,1.69891 1.045483,3.09289 2.330556,4.13838 1.328635,1.04548 2.89686,1.54644 4.726455,1.54644 1.894939,0 3.463163,-0.50096 4.726456,-1.54644 1.285073,-1.02371 1.916719,-2.3959 1.916719,-4.13838 0,-0.58808 -0.06534,-1.15438 -0.217809,-1.65534 -0.130686,-0.50096 -0.326714,-0.95836 -0.566304,-1.30686 -0.217809,-0.39205 -0.522741,-0.74055 -0.893017,-1.06726 -0.370275,-0.32672 -0.74055,-0.60987 -1.110825,-0.82768 -0.370276,-0.23959 -0.805894,-0.4574 -1.306854,-0.69699 -0.283152,-0.13068 -0.696989,-0.30493 -1.241512,-0.50096 -0.544522,-0.2178 -1.023702,-0.39205 -1.45932,-0.5663 -0.413837,-0.17425 -0.827674,-0.37027 -1.263292,-0.60986 -0.435618,-0.23959 -0.762331,-0.50096 -1.001921,-0.8059 -0.23959,-0.28315 -0.348495,-0.60986 -0.348495,-0.95836 0,-0.76233 0.23959,-1.28507 0.762332,-1.61178 0.522741,-0.3485 1.176168,-0.50096 2.003842,-0.50096 1.285073,0 2.134529,0.50096 2.570147,1.52466 l 3.593848,-0.67521 c -0.392056,-1.15439 -1.154388,-2.11275 -2.286995,-2.87508 -1.110825,-0.76233 -2.417679,-1.15439 -3.877,-1.15439 -0.827674,0 -1.633567,0.13069 -2.374118,0.3485 -0.74055,0.21781 -1.415758,0.52274 -2.025623,0.95836 -0.609865,0.41384 -1.089045,0.98014 -1.43754,1.67713 -0.370275,0.67521 -0.544522,1.43754 -0.544522,2.30877 0,0.67521 0.108904,1.2633 0.304933,1.78604 0.196028,0.54452 0.457398,0.98014 0.827674,1.37219 0.392056,0.3485 0.74055,0.65343 1.110826,0.89302 0.348494,0.23959 0.805893,0.47918 1.328634,0.71877 0.392057,0.19603 0.871236,0.39206 1.415759,0.60987 0.544522,0.2178 1.001921,0.39205 1.372197,0.54452 0.392056,0.13068 0.784112,0.30493 1.197949,0.52274 0.413837,0.21781 0.740551,0.43562 0.98014,0.65343 0.261371,0.21781 0.47918,0.47918 0.631646,0.80589 0.174248,0.32671 0.261371,0.69699 0.261371,1.08904 0,0.76234 -0.283151,1.35042 -0.805893,1.8296 -0.522742,0.4574 -1.285073,0.69699 -2.243433,0.69699 -0.958359,0 -1.742472,-0.30493 -2.330556,-0.87124 -0.588084,-0.58808 -0.98014,-1.32863 -1.197949,-2.19987 z"
         id="path3315" />
      <path
         d="m 48.316497,307.38241 v 19.97309 h 13.482376 v -3.28892 h -9.823185 v -16.68417 z"
         id="path3317" />
      <path
         d="m 72.493295,308.36255 v 4.35618 h 2.17809 v -4.35618 z m -0.631646,8.71236 h 4.987825 v 2.17809 h -1.546443 l -2.17809,2.17809 h -1.263292 l -1.546444,-1.54644 v -1.26329 z m -3.724534,0.63165 v 3.09289 l 2.809736,2.80973 h 3.092887 l 2.17809,-2.17809 h 0.631646 v 2.17809 h 2.17809 v -8.71236 h -8.080713 z"
         id="path3319" />
      <path
         d="m 16.494611,334.60854 v 19.97308 h 3.680972 v -6.79564 l 1.611787,-1.80781 6.229337,8.60345 h 4.617551 l -8.037152,-11.06469 7.623315,-8.90839 h -4.59577 l -7.449068,8.55989 v -8.55989 z"
         id="path3321" />
      <path
         d="m 39.604145,334.60854 v 19.97308 h 13.482377 v -3.28891 h -9.823186 v -16.68417 z"
         id="path3323" />
      <path
         d="m 67.048078,334.28182 c -0.348494,0.26138 -0.566303,0.56631 -0.631646,0.95836 -0.08712,0.39206 -0.130685,1.56823 -0.130685,3.50673 -0.02178,1.80781 0,2.98398 0.04356,3.50672 0.04356,0.52275 0.152467,0.9148 0.370276,1.13261 0.304932,0.39206 0.74055,0.5663 1.285073,0.50096 0.544522,-0.0436 0.936578,-0.30493 1.197949,-0.76233 0.130686,-0.21781 0.196028,-0.50096 0.217809,-0.87124 0.02178,-0.34849 0.04356,-1.45932 0.04356,-3.28891 0,-1.78604 -0.02178,-2.8533 -0.04356,-3.24536 -0.02178,-0.39205 -0.08712,-0.69698 -0.217809,-0.91479 -0.217809,-0.37028 -0.522741,-0.60987 -0.958359,-0.71877 -0.435618,-0.0871 -0.827674,-0.0218 -1.176169,0.19602 z m 0.130686,10.30237 c -0.130686,0.0871 -0.304933,0.1089 -0.500961,0.1089 -0.23959,0 -0.588084,0.15247 -1.067264,0.41384 -0.47918,0.28315 -0.849455,0.56631 -1.110826,0.84946 -0.304933,0.30493 -0.588084,0.6752 -0.827674,1.11082 -0.23959,0.43562 -0.348495,0.76233 -0.348495,0.98014 0,0.23959 -0.04356,0.39206 -0.130685,0.47918 -0.08712,0.0871 -0.152466,0.56631 -0.196028,1.45932 -0.04356,0.9148 0,1.59001 0.130685,2.02563 0.130686,0.43561 0.413837,0.87123 0.893017,1.32863 0.435618,0.43562 0.71877,0.65343 0.849455,0.65343 0.130686,0 0.261371,0.0436 0.348495,0.13068 0.08712,0.10891 0.544522,0.17425 1.393977,0.19603 0.849455,0.0218 1.502882,0 1.982062,-0.0871 1.21973,-0.21781 1.873157,-0.26137 1.960281,-0.15247 0.08712,0.13069 0.261371,0.26137 0.500961,0.3485 0.217809,0.0871 0.457398,0.13068 0.696988,0.13068 0.47918,0 0.871236,-0.13068 1.154388,-0.43562 0.283152,-0.30493 0.413837,-0.6752 0.370275,-1.11082 -0.04356,-0.43562 -0.23959,-0.87124 -0.588084,-1.26329 -0.217809,-0.21781 -0.348494,-0.56631 -0.435618,-1.04549 -0.08712,-0.47918 -0.130685,-1.28507 -0.152466,-2.43946 -0.04356,-1.41576 -0.108905,-2.24343 -0.174247,-2.5048 -0.08712,-0.23959 -0.261371,-0.47918 -0.500961,-0.69699 -0.261371,-0.21781 -0.522742,-0.37028 -0.827674,-0.4574 -0.326714,-0.0653 -0.95836,-0.1089 -1.873158,-0.13068 -0.914797,0 -1.437539,0.0218 -1.546443,0.1089 z m 1.633567,4.05125 c 0.02178,0.52274 0.06534,1.06726 0.152466,1.61178 0.06534,0.43562 0.08712,0.65343 0.06534,0.67521 -0.04356,0.0436 -0.283152,0.10891 -0.696989,0.17425 -0.413837,0.0871 -0.805893,0.13068 -1.176168,0.15247 -0.392057,0.0218 -0.609866,0.0218 -0.696989,0 -0.08712,-0.0218 -0.174247,-0.13069 -0.261371,-0.30494 -0.08712,-0.15246 -0.108904,-0.30493 -0.108904,-0.43562 0,-0.13068 0.02178,-0.39205 0.108904,-0.80589 0.130685,-0.63164 0.261371,-1.04548 0.370275,-1.21973 0.08712,-0.21781 0.304933,-0.41384 0.609866,-0.58808 0.304932,-0.15247 0.653427,-0.23959 1.045483,-0.23959 l 0.522741,-0.0218 z"
         id="path3325" />
      <path
         d="m -25.782114,361.83466 v 19.99487 h 3.680972 v -8.01537 c 0.71877,0 1.306854,-0.0218 1.764253,-0.0218 0.47918,-0.0218 1.089045,-0.0653 1.851377,-0.13069 0.762331,-0.0871 1.393977,-0.19603 1.894938,-0.34849 0.522741,-0.15247 1.067264,-0.37028 1.677129,-0.65343 0.588084,-0.30493 1.067264,-0.65343 1.437539,-1.06727 0.348495,-0.41383 0.653427,-0.93657 0.893017,-1.59 0.23959,-0.63165 0.370276,-1.3722 0.370276,-2.17809 0,-0.80589 -0.130686,-1.54644 -0.370276,-2.17809 -0.23959,-0.65343 -0.544522,-1.17617 -0.893017,-1.59001 -0.370275,-0.41383 -0.849455,-0.76233 -1.437539,-1.06726 -0.609865,-0.28315 -1.176169,-0.50096 -1.677129,-0.65343 -0.47918,-0.15246 -1.110826,-0.26137 -1.894938,-0.32671 -0.762332,-0.0871 -1.372197,-0.13069 -1.829596,-0.13069 -0.457399,-0.0218 -1.045483,-0.0436 -1.786034,-0.0436 z m 3.680972,8.69058 v -5.37988 h 0.980141 c 0.718769,0 1.328635,0 1.786034,0.0436 0.50096,0.0218 0.958359,0.10891 1.415758,0.21781 0.457399,0.0871 0.827674,0.23959 1.067264,0.43562 0.283152,0.19603 0.47918,0.4574 0.631646,0.78411 0.152466,0.32671 0.23959,0.71877 0.23959,1.19795 0,0.47918 -0.08712,0.87124 -0.23959,1.21973 -0.152466,0.30493 -0.348494,0.5663 -0.631646,0.76233 -0.23959,0.19603 -0.609865,0.3485 -1.067264,0.4574 -0.457399,0.1089 -0.914798,0.17425 -1.415758,0.21781 -0.457399,0.0218 -1.067265,0.0436 -1.786034,0.0436 z"
         id="path3327" />
      <path
         d="m -5.3298494,371.46182 c 0,0.9148 0.087124,1.82959 0.2613708,2.74439 0.1960281,0.9148 0.5009607,1.80782 0.9147978,2.67905 0.4138371,0.87124 0.9147977,1.65535 1.5246629,2.30878 0.6098652,0.67521 1.3721966,1.19795 2.3087753,1.61179 0.93657866,0.41383 1.9602809,0.60986 3.1146686,0.60986 1.1326067,0 2.1780899,-0.19603 3.1146685,-0.60986 0.9365787,-0.41384 1.6989102,-0.93658 2.3087753,-1.61179 0.6098652,-0.65343 1.1108259,-1.43754 1.524663,-2.30878 0.4138372,-0.87123 0.7187692,-1.76425 0.8930172,-2.65727 0.174247,-0.91479 0.26137,-1.82959 0.26137,-2.76617 0,-0.93658 -0.08712,-1.87316 -0.26137,-2.76617 -0.174248,-0.9148 -0.47918,-1.80782 -0.8930172,-2.70084 -0.4138371,-0.89301 -0.9147978,-1.65534 -1.524663,-2.30877 -0.6098651,-0.67521 -1.3721966,-1.21973 -2.3087753,-1.61179 -0.9365786,-0.41384 -1.9820618,-0.63164 -3.1146685,-0.63164 -1.1543877,0 -2.17808994,0.2178 -3.1146686,0.63164 -0.9365787,0.39206 -1.6989101,0.93658 -2.3087753,1.61179 -0.6098652,0.65343 -1.1108258,1.41576 -1.5246629,2.30877 -0.4138371,0.89302 -0.7187697,1.78604 -0.9147978,2.70084 -0.1742472,0.89301 -0.2613708,1.82959 -0.2613708,2.76617 z m 12.5022361,0 c 0,0.67521 -0.043562,1.32863 -0.1306854,1.96028 -0.087124,0.60987 -0.2395899,1.21973 -0.4573989,1.80782 -0.1960281,0.60986 -0.4791798,1.11082 -0.8058933,1.56822 -0.3049326,0.43562 -0.7187696,0.78411 -1.2415112,1.06726 -0.5227416,0.26137 -1.089045,0.39206 -1.7424719,0.39206 -0.653427,0 -1.2197304,-0.13069 -1.742472,-0.39206 -0.52274154,-0.28315 -0.93657862,-0.63164 -1.2632921,-1.06726 -0.32671349,-0.4574 -0.58808428,-0.95836 -0.8058933,-1.56822 -0.1960281,-0.58809 -0.3484944,-1.19795 -0.4356179,-1.80782 -0.087124,-0.63165 -0.1306854,-1.28507 -0.1306854,-1.96028 0,-0.69699 0.043562,-1.35042 0.1306854,-1.96028 0.087123,-0.63165 0.2395898,-1.24151 0.4356179,-1.85138 0.21780902,-0.60986 0.47917981,-1.1326 0.8058933,-1.56822 0.32671348,-0.43562 0.74055056,-0.8059 1.2632921,-1.06727 0.5009607,-0.26137 1.089045,-0.39205 1.742472,-0.39205 0.8058932,0 1.4811011,0.19603 2.0909663,0.58808 0.5880842,0.41384 1.0454831,0.93658 1.3504157,1.61179 0.3267135,0.67521 0.5663034,1.41576 0.7187697,2.17809 0.1306854,0.76233 0.217809,1.59 0.217809,2.46124 z"
         id="path3329" />
      <path
         d="m 17.779685,361.83466 v 19.99487 h 3.680971 v -8.01537 c 0.71877,0 1.306854,-0.0218 1.764253,-0.0218 0.47918,-0.0218 1.089045,-0.0653 1.851377,-0.13069 0.762331,-0.0871 1.393977,-0.19603 1.894938,-0.34849 0.522741,-0.15247 1.067264,-0.37028 1.677129,-0.65343 0.588084,-0.30493 1.067264,-0.65343 1.437539,-1.06727 0.348495,-0.41383 0.653427,-0.93657 0.893017,-1.59 0.23959,-0.63165 0.370276,-1.3722 0.370276,-2.17809 0,-0.80589 -0.130686,-1.54644 -0.370276,-2.17809 -0.23959,-0.65343 -0.544522,-1.17617 -0.893017,-1.59001 -0.370275,-0.41383 -0.849455,-0.76233 -1.437539,-1.06726 -0.609865,-0.28315 -1.176168,-0.50096 -1.677129,-0.65343 -0.47918,-0.15246 -1.110826,-0.26137 -1.894938,-0.32671 -0.762332,-0.0871 -1.372197,-0.13069 -1.829596,-0.13069 -0.457399,-0.0218 -1.045483,-0.0436 -1.786034,-0.0436 z m 3.680971,8.69058 v -5.37988 h 0.980141 c 0.71877,0 1.328635,0 1.786034,0.0436 0.50096,0.0218 0.958359,0.10891 1.415758,0.21781 0.457399,0.0871 0.827674,0.23959 1.067264,0.43562 0.283152,0.19603 0.47918,0.4574 0.631646,0.78411 0.152466,0.32671 0.23959,0.71877 0.23959,1.19795 0,0.47918 -0.08712,0.87124 -0.23959,1.21973 -0.152466,0.30493 -0.348494,0.5663 -0.631646,0.76233 -0.23959,0.19603 -0.609865,0.3485 -1.067264,0.4574 -0.457399,0.1089 -0.914798,0.17425 -1.415758,0.21781 -0.457399,0.0218 -1.067264,0.0436 -1.786034,0.0436 z"
         id="path3331" />
      <path
         d="m 39.495241,376.12293 c 0.261371,1.69891 1.045483,3.09289 2.330556,4.13837 1.328635,1.04549 2.89686,1.54645 4.726455,1.54645 1.894938,0 3.463163,-0.50096 4.726455,-1.54645 1.285073,-1.0237 1.916719,-2.3959 1.916719,-4.13837 0,-0.58808 -0.06534,-1.15439 -0.217809,-1.65535 -0.130685,-0.50096 -0.326713,-0.95836 -0.566303,-1.30685 -0.217809,-0.39206 -0.522742,-0.74055 -0.893017,-1.06726 -0.370275,-0.32672 -0.74055,-0.60987 -1.110826,-0.82768 -0.370275,-0.23959 -0.805893,-0.4574 -1.306854,-0.69699 -0.283151,-0.13068 -0.696988,-0.30493 -1.241511,-0.50096 -0.544522,-0.21781 -1.023702,-0.39205 -1.45932,-0.5663 -0.413837,-0.17425 -0.827674,-0.37028 -1.263292,-0.60987 -0.435618,-0.23959 -0.762332,-0.50096 -1.001922,-0.80589 -0.23959,-0.28315 -0.348494,-0.60987 -0.348494,-0.95836 0,-0.76233 0.23959,-1.28507 0.762331,-1.61179 0.522742,-0.34849 1.176169,-0.50096 2.003843,-0.50096 1.285073,0 2.134528,0.50096 2.570146,1.52467 l 3.593849,-0.67521 c -0.392057,-1.15439 -1.154388,-2.11275 -2.286995,-2.87508 -1.110826,-0.76233 -2.41768,-1.15439 -3.877,-1.15439 -0.827674,0 -1.633567,0.13069 -2.374118,0.3485 -0.74055,0.21781 -1.415758,0.52274 -2.025623,0.95836 -0.609866,0.41383 -1.089045,0.98014 -1.43754,1.67713 -0.370275,0.6752 -0.544522,1.43753 -0.544522,2.30877 0,0.67521 0.108904,1.26329 0.304932,1.78603 0.196028,0.54453 0.457399,0.98014 0.827674,1.3722 0.392057,0.3485 0.740551,0.65343 1.110826,0.89302 0.348495,0.23959 0.805894,0.47918 1.328635,0.71877 0.392056,0.19603 0.871236,0.39205 1.415759,0.60986 0.544522,0.21781 1.001921,0.39206 1.372196,0.54453 0.392056,0.13068 0.784113,0.30493 1.19795,0.52274 0.413837,0.21781 0.74055,0.43561 0.98014,0.65342 0.261371,0.21781 0.47918,0.47918 0.631646,0.8059 0.174247,0.32671 0.261371,0.69699 0.261371,1.08904 0,0.76233 -0.283152,1.35042 -0.805893,1.8296 -0.522742,0.4574 -1.285073,0.69699 -2.243433,0.69699 -0.958359,0 -1.742472,-0.30494 -2.330556,-0.87124 -0.588084,-0.58808 -0.980141,-1.32863 -1.197949,-2.19987 z"
         id="path3333" />
      <path
         d="m 67.636162,361.35548 -0.283151,0.26137 v 3.89878 c 0,2.61371 -0.04356,3.92057 -0.108905,3.94235 -0.08712,0.0436 -0.130685,0.32671 -0.130685,0.87123 0,0.56631 -0.06534,0.84946 -0.174247,0.89302 -0.304933,0.13068 -0.217809,0.41384 0.283151,0.89302 l 0.217809,0.21781 c 0.304933,0.37027 0.326714,0.54452 0.02178,0.54452 -0.130685,0 -0.261371,0.0653 -0.348494,0.17425 -0.108905,0.13068 -0.217809,0.17424 -0.348495,0.17424 -0.152466,0 -0.217809,0.0436 -0.217809,0.10891 0,0.0871 -0.08712,0.1089 -0.217809,0.1089 -0.130685,0 -0.26137,0.0653 -0.348494,0.17425 -0.108904,0.13068 -0.196028,0.17425 -0.283152,0.17425 -0.130685,0 -0.283151,0.0871 -0.413837,0.2178 -0.152466,0.13069 -0.217809,0.26138 -0.217809,0.37028 0,0.13069 -0.06534,0.19603 -0.174247,0.19603 -0.130685,0 -0.348494,0.15246 -0.609865,0.4574 -0.304933,0.30493 -0.522742,0.4574 -0.609865,0.47918 -0.152466,0.0436 -0.675208,0.50096 -1.568225,1.41576 -0.914798,0.91479 -1.350416,1.41575 -1.350416,1.52466 0,0.15246 -0.04356,0.21781 -0.108904,0.21781 -0.08712,0 -0.108905,0.0871 -0.108905,0.21781 0,0.13068 -0.06534,0.26137 -0.174247,0.34849 -0.130685,0.0871 -0.174247,0.39206 -0.174247,0.87124 0,0.34849 0.02178,0.58808 0.06534,0.69699 0.04356,0.1089 0.152466,0.26137 0.326713,0.43561 0.261371,0.26137 0.500961,0.37028 0.71877,0.37028 0.217809,0 0.370275,0.0653 0.413837,0.17425 0.04356,0.13068 0.348494,0.19602 0.958359,0.19602 0.588085,0 0.936579,-0.0653 1.045484,-0.19602 0.08712,-0.10891 0.26137,-0.17425 0.479179,-0.17425 0.217809,0 0.413837,-0.0871 0.566304,-0.28315 0.130685,-0.17425 0.261371,-0.28315 0.392056,-0.28315 0.08712,0 0.413837,-0.26138 0.958359,-0.8059 0.544523,-0.52274 0.827675,-0.84945 0.827675,-0.95836 0,-0.0871 0.06534,-0.21781 0.23959,-0.34849 0.174247,-0.15247 0.304932,-0.37028 0.435618,-0.65343 0.130685,-0.32671 0.239589,-0.54452 0.304932,-0.63165 0.06534,-0.1089 0.130686,-0.23959 0.174247,-0.37027 0.04356,-0.13069 0.130686,-0.19603 0.283152,-0.19603 0.130685,0 0.217809,0.0653 0.217809,0.19603 0,0.15247 0.08712,0.30493 0.283152,0.47918 0.174247,0.17425 0.283151,0.32671 0.283151,0.43562 0,0.1089 0.544523,0.69699 1.633568,1.78603 l 1.633567,1.63357 h 0.588084 c 0.392057,0 0.631647,0.0653 0.740551,0.17425 0.130685,0.13068 0.326714,0.17424 0.631646,0.17424 0.304933,0 0.457399,-0.0436 0.500961,-0.17424 0.04356,-0.10891 0.196028,-0.17425 0.457399,-0.17425 0.152466,0 0.304932,-0.0436 0.479179,-0.15247 0.174248,-0.1089 0.261371,-0.21781 0.261371,-0.34849 0,-0.0653 -0.130685,-0.19603 -0.370275,-0.41384 -0.23959,-0.21781 -0.392056,-0.32671 -0.457399,-0.32671 -0.130685,0 -0.23959,-0.0436 -0.326713,-0.17425 -0.08712,-0.1089 -0.217809,-0.17425 -0.348495,-0.17425 -0.152466,0 -0.217809,-0.0218 -0.217809,-0.1089 0,-0.0653 -0.06534,-0.10891 -0.196028,-0.10891 -0.152466,0 -0.304932,-0.0871 -0.47918,-0.28315 -0.174247,-0.17425 -0.326713,-0.28315 -0.435618,-0.28315 -0.108904,0 -0.348494,-0.17425 -0.696988,-0.5663 -0.370276,-0.37028 -0.609866,-0.56631 -0.696989,-0.56631 -0.08712,0 -0.413837,-0.26137 -0.95836,-0.80589 -0.566303,-0.52274 -0.784112,-0.82767 -0.653427,-0.87124 0.08712,-0.0218 0.152467,-0.0871 0.152467,-0.19602 0,-0.0871 -0.06534,-0.17425 -0.174248,-0.21781 -0.108904,-0.0436 -0.152466,-0.13069 -0.152466,-0.28315 0,-0.15247 -0.04356,-0.23959 -0.130685,-0.23959 -0.08712,0 -0.108905,-0.0653 -0.108905,-0.21781 0,-0.13069 -0.06534,-0.23959 -0.174247,-0.3485 -0.130685,-0.0871 -0.174247,-0.21781 -0.174247,-0.34849 0,-0.13069 -0.04356,-0.21781 -0.108905,-0.21781 -0.08712,0 -0.108904,-0.0653 -0.108904,-0.19603 0,-0.13068 -0.196028,-0.39206 -0.566304,-0.76233 -0.130685,-0.13069 -0.239589,-0.23959 -0.326713,-0.37028 -0.326713,-0.39205 -0.370275,-0.60986 -0.130685,-0.60986 0.06534,0 0.108904,-0.37028 0.108904,-1.11083 0,-0.74055 0.04356,-1.15438 0.174247,-1.19795 0.06534,0 0.108905,-0.13068 0.130686,-0.39205 0.02178,-0.23959 0.04356,-0.74055 0.04356,-1.4811 0,-1.21973 0.02178,-1.8296 0.108905,-1.8296 0.06534,0 0.108904,-0.21781 0.108904,-0.67521 0,-0.43561 0.04356,-0.69699 0.174248,-0.74055 0.108904,-0.0436 0.174247,-0.34849 0.174247,-0.9148 0,-0.54452 0.02178,-0.82767 0.108904,-0.82767 0.06534,0 0.108905,-0.21781 0.108905,-0.69699 0,-0.30493 -0.02178,-0.52274 -0.06534,-0.63164 -0.04356,-0.10891 -0.130685,-0.26138 -0.304932,-0.43562 -0.500961,-0.50096 -1.001922,-0.54452 -1.481102,-0.13069 z m -0.522741,13.89622 c 0,0.13068 -0.06534,0.23959 -0.174247,0.28315 -0.108905,0.0436 -0.152467,0.17424 -0.152467,0.39205 0,0.26137 -0.04356,0.39206 -0.130685,0.41384 -0.08712,0.0436 -0.108905,0.19603 -0.108905,0.4574 0,0.26137 -0.06534,0.39206 -0.174247,0.43562 -0.130685,0.0436 -0.174247,0.15246 -0.174247,0.30493 0,0.15247 -0.04356,0.21781 -0.108904,0.21781 -0.08712,0 -0.108905,0.0871 -0.108905,0.23959 0,0.13068 -0.261371,0.4574 -0.784112,1.00192 -0.522742,0.54452 -0.849455,0.80589 -0.95836,0.80589 -0.108904,0 -0.23959,0.10891 -0.413837,0.28316 -0.196028,0.19602 -0.348494,0.28315 -0.47918,0.28315 -0.130685,0 -0.196028,0.0436 -0.196028,0.1089 0,0.0653 -0.08712,0.10891 -0.23959,0.10891 -0.174247,0.0218 -0.348494,0.0218 -0.522741,-0.0218 -0.196028,-0.0218 -0.326714,-0.0653 -0.392056,-0.13069 -0.130686,-0.0871 -0.217809,-0.19603 -0.217809,-0.32671 0,-0.10891 0.06534,-0.19603 0.196028,-0.23959 0.108904,-0.0436 0.152466,-0.17425 0.130685,-0.41384 -0.04356,-0.23959 -0.02178,-0.37028 0.108905,-0.41384 0.08712,-0.0436 0.130685,-0.15246 0.130685,-0.32671 0,-0.15247 0.04356,-0.26137 0.174247,-0.32671 0.108905,-0.0436 0.174247,-0.10891 0.174247,-0.23959 0,-0.10891 0.23959,-0.41384 0.71877,-0.89302 0.47918,-0.47918 0.762331,-0.74055 0.893017,-0.74055 0.108904,0 0.261371,-0.10891 0.435618,-0.3485 0.174247,-0.19602 0.370275,-0.30493 0.544522,-0.32671 0.152467,0 0.23959,-0.0218 0.23959,-0.1089 0,-0.0871 0.06534,-0.13069 0.217809,-0.13069 0.130686,0 0.283152,-0.0871 0.457399,-0.28315 0.108905,-0.10891 0.23959,-0.19603 0.392056,-0.23959 0.130686,-0.0436 0.261371,-0.0653 0.370276,-0.0218 0.08712,0.0436 0.152466,0.1089 0.152466,0.19603 z"
         id="path3335" />
      <path
         d="m -4.763546,409.03387 h 3.6809719 v -13.32991 l 7.7975619,13.32991 H 10.330617 V 389.06079 H 6.6496451 v 12.91607 L -1.1914786,389.06079 H -4.763546 Z"
         id="path3337" />
      <path
         d="m 16.45105,398.68794 c 0,0.9148 0.08712,1.8296 0.26137,2.7444 0.196029,0.91479 0.500961,1.80781 0.914798,2.67905 0.413837,0.87123 0.914798,1.65535 1.524663,2.30877 0.609865,0.67521 1.372197,1.19795 2.308775,1.61179 0.936579,0.41384 1.960281,0.60986 3.114669,0.60986 1.132607,0 2.17809,-0.19602 3.114669,-0.60986 0.936578,-0.41384 1.69891,-0.93658 2.308775,-1.61179 0.609865,-0.65342 1.110826,-1.43754 1.524663,-2.30877 0.413837,-0.87124 0.718769,-1.76426 0.893017,-2.65727 0.174247,-0.9148 0.26137,-1.8296 0.26137,-2.76618 0,-0.93658 -0.08712,-1.87315 -0.26137,-2.76617 -0.174248,-0.9148 -0.47918,-1.80782 -0.893017,-2.70083 -0.413837,-0.89302 -0.914798,-1.65535 -1.524663,-2.30878 -0.609865,-0.67521 -1.372197,-1.21973 -2.308775,-1.61178 -0.936579,-0.41384 -1.982062,-0.63165 -3.114669,-0.63165 -1.154388,0 -2.17809,0.21781 -3.114669,0.63165 -0.936578,0.39205 -1.69891,0.93657 -2.308775,1.61178 -0.609865,0.65343 -1.110826,1.41576 -1.524663,2.30878 -0.413837,0.89301 -0.718769,1.78603 -0.914798,2.70083 -0.174247,0.89302 -0.26137,1.82959 -0.26137,2.76617 z m 12.502236,0 c 0,0.67521 -0.04356,1.32864 -0.130686,1.96028 -0.08712,0.60987 -0.23959,1.21973 -0.457399,1.80782 -0.196028,0.60986 -0.479179,1.11082 -0.805893,1.56822 -0.304932,0.43562 -0.718769,0.78412 -1.241511,1.06727 -0.522742,0.26137 -1.089045,0.39205 -1.742472,0.39205 -0.653427,0 -1.21973,-0.13068 -1.742472,-0.39205 -0.522741,-0.28315 -0.936579,-0.63165 -1.263292,-1.06727 -0.326714,-0.4574 -0.588084,-0.95836 -0.805893,-1.56822 -0.196028,-0.58809 -0.348495,-1.19795 -0.435618,-1.80782 -0.08712,-0.63164 -0.130686,-1.28507 -0.130686,-1.96028 0,-0.69699 0.04356,-1.35041 0.130686,-1.96028 0.08712,-0.63164 0.23959,-1.24151 0.435618,-1.85137 0.217809,-0.60987 0.479179,-1.13261 0.805893,-1.56823 0.326713,-0.43562 0.740551,-0.80589 1.263292,-1.06726 0.500961,-0.26137 1.089045,-0.39206 1.742472,-0.39206 0.805893,0 1.481101,0.19603 2.090966,0.58809 0.588085,0.41383 1.045483,0.93657 1.350416,1.61178 0.326714,0.67521 0.566303,1.41576 0.71877,2.17809 0.130685,0.76233 0.217809,1.59001 0.217809,2.46124 z"
         id="path3339" />
      <path
         d="m 39.560584,389.06079 v 19.99486 h 3.680971 v -8.01537 c 0.71877,0 1.306854,-0.0218 1.764253,-0.0218 0.47918,-0.0218 1.089045,-0.0653 1.851377,-0.13069 0.762331,-0.0871 1.393977,-0.19602 1.894938,-0.34849 0.522742,-0.15247 1.067264,-0.37028 1.677129,-0.65343 0.588084,-0.30493 1.067264,-0.65342 1.43754,-1.06726 0.348494,-0.41384 0.653426,-0.93658 0.893016,-1.59001 0.23959,-0.63164 0.370276,-1.37219 0.370276,-2.17809 0,-0.80589 -0.130686,-1.54644 -0.370276,-2.17809 -0.23959,-0.65342 -0.544522,-1.17617 -0.893016,-1.59 -0.370276,-0.41384 -0.849456,-0.76233 -1.43754,-1.06727 -0.609865,-0.28315 -1.176168,-0.50096 -1.677129,-0.65342 -0.47918,-0.15247 -1.110826,-0.26137 -1.894938,-0.32672 -0.762332,-0.0871 -1.372197,-0.13068 -1.829596,-0.13068 -0.457399,-0.0218 -1.045483,-0.0436 -1.786034,-0.0436 z m 3.680971,8.69057 v -5.37988 h 0.980141 c 0.71877,0 1.328635,0 1.786034,0.0436 0.50096,0.0218 0.958359,0.10891 1.415758,0.21781 0.457399,0.0871 0.827674,0.23959 1.067264,0.43562 0.283152,0.19603 0.47918,0.4574 0.631646,0.78411 0.152467,0.32672 0.23959,0.71877 0.23959,1.19795 0,0.47918 -0.08712,0.87124 -0.23959,1.21973 -0.152466,0.30494 -0.348494,0.56631 -0.631646,0.76233 -0.23959,0.19603 -0.609865,0.3485 -1.067264,0.4574 -0.457399,0.10891 -0.914798,0.17425 -1.415758,0.21781 -0.457399,0.0218 -1.067264,0.0436 -1.786034,0.0436 z"
         id="path3341" />
      <path
         d="m 66.329308,393.30806 v 3.61563 h 1.807815 1.807815 v -3.61563 -3.63741 h -1.807815 -1.807815 z m -3.63741,10.89045 v 3.61563 h 7.25304 7.27482 v -1.80781 -1.80782 h -1.829596 -1.807814 v -1.82959 -1.80782 h -5.445225 -5.445225 z"
         id="path3343" />
    </g>
    <text
       xml:space="preserve"
       style="font-style:normal;font-variant:normal;font-weight:normal;font-stretch:normal;font-size:21.7809px;line-height:1.25;font-family:'tan seme A';-inkscape-font-specification:'tan seme A';text-align:end;text-decoration-color:#000000;letter-spacing:0px;word-spacing:0px;text-anchor:end;white-space:pre;display:inline;fill:#000000;fill-opacity:1;fill-rule:evenodd;stroke:none;stroke-width:3;stop-color:#000000"
       x="79.027573"
       y="24.121822"
       id="text242"><tspan
         sodipodi:role="line"
         id="tspan240"
         style="font-style:normal;font-variant:normal;font-weight:normal;font-stretch:normal;font-family:'tan seme A';-inkscape-font-specification:'tan seme A';text-align:end;text-anchor:end;fill:#000000;fill-opacity:1;stroke:none;stroke-width:3"
         x="79.027573"
         y="24.121822">HELP1</tspan><tspan
         sodipodi:role="line"
         style="font-style:normal;font-variant:normal;font-weight:normal;font-stretch:normal;font-family:'tan seme A';-inkscape-font-specification:'tan seme A';text-align:end;text-anchor:end;fill:#000000;fill-opacity:1;stroke:none;stroke-width:3"
         x="79.027565"
         y="51.347946"
         id="tspan244">HELP2</tspan><tspan
         sodipodi:role="line"
         style="font-style:normal;font-variant:normal;font-weight:normal;font-stretch:normal;font-family:'tan seme A';-inkscape-font-specification:'tan seme A';text-align:end;text-anchor:end;fill:#000000;fill-opacity:1;stroke:none;stroke-width:3"
         x="79.02758"
         y="78.574074"
         id="tspan246">HELP3</tspan><tspan
         sodipodi:role="line"
         style="font-style:normal;font-variant:normal;font-weight:normal;font-stretch:normal;font-family:'tan seme A';-inkscape-font-specification:'tan seme A';text-align:end;text-anchor:end;fill:#000000;fill-opacity:1;stroke:none;stroke-width:3"
         x="79.027573"
         y="105.80019"
         id="tspan250">HELP4</tspan><tspan
         sodipodi:role="line"
         style="font-style:normal;font-variant:normal;font-weight:normal;font-stretch:normal;font-family:'tan seme A';-inkscape-font-specification:'tan seme A';text-align:end;text-anchor:end;fill:#000000;fill-opacity:1;stroke:none;stroke-width:3"
         x="79.027573"
         y="133.02632"
         id="tspan252">HELP5</tspan><tspan
         sodipodi:role="line"
         style="font-style:normal;font-variant:normal;font-weight:normal;font-stretch:normal;font-family:'tan seme A';-inkscape-font-specification:'tan seme A';text-align:end;text-anchor:end;fill:#000000;fill-opacity:1;stroke:none;stroke-width:3"
         x="79.027573"
         y="160.25244"
         id="tspan414">HELP6</tspan><tspan
         sodipodi:role="line"
         style="font-style:normal;font-variant:normal;font-weight:normal;font-stretch:normal;font-family:'tan seme A';-inkscape-font-specification:'tan seme A';text-align:end;text-anchor:end;fill:#000000;fill-opacity:1;stroke:none;stroke-width:3"
         x="79.027565"
         y="187.47856"
         id="tspan416">HELP7</tspan><tspan
         sodipodi:role="line"
         style="font-style:normal;font-variant:normal;font-weight:normal;font-stretch:normal;font-family:'tan seme A';-inkscape-font-specification:'tan seme A';text-align:end;text-anchor:end;fill:#000000;fill-opacity:1;stroke:none;stroke-width:3"
         x="79.027565"
         y="214.7047"
         id="tspan418">HELP8</tspan><tspan
         sodipodi:role="line"
         style="font-style:normal;font-variant:normal;font-weight:normal;font-stretch:normal;font-family:'tan seme A';-inkscape-font-specification:'tan seme A';text-align:end;text-anchor:end;fill:#000000;fill-opacity:1;stroke:none;stroke-width:3"
         x="79.027573"
         y="241.93082"
         id="tspan420">HELP9</tspan><tspan
         sodipodi:role="line"
         style="font-style:normal;font-variant:normal;font-weight:normal;font-stretch:normal;font-family:'tan seme A';-inkscape-font-specification:'tan seme A';text-align:end;text-anchor:end;fill:#000000;fill-opacity:1;stroke:none;stroke-width:3"
         x="79.027573"
         y="269.15692"
         id="tspan422">HELP10</tspan><tspan
         sodipodi:role="line"
         style="font-style:normal;font-variant:normal;font-weight:normal;font-stretch:normal;font-family:'tan seme A';-inkscape-font-specification:'tan seme A';text-align:end;text-anchor:end;fill:#000000;fill-opacity:1;stroke:none;stroke-width:3"
         x="79.027573"
         y="296.38306"
         id="tspan424">HELP11</tspan><tspan
         sodipodi:role="line"
         style="font-style:normal;font-variant:normal;font-weight:normal;font-stretch:normal;font-family:'tan seme A';-inkscape-font-specification:'tan seme A';text-align:end;text-anchor:end;fill:#000000;fill-opacity:1;stroke:none;stroke-width:3"
         x="79.027573"
         y="323.60919"
         id="tspan426">HELP12</tspan><tspan
         sodipodi:role="line"
         style="font-style:normal;font-variant:normal;font-weight:normal;font-stretch:normal;font-family:'tan seme A';-inkscape-font-specification:'tan seme A';text-align:end;text-anchor:end;fill:#000000;fill-opacity:1;stroke:none;stroke-width:3"
         x="79.027573"
         y="350.8353"
         id="tspan428">HELP13</tspan><tspan
         sodipodi:role="line"
         style="font-style:normal;font-variant:normal;font-weight:normal;font-stretch:normal;font-family:'tan seme A';-inkscape-font-specification:'tan seme A';text-align:end;text-anchor:end;fill:#000000;fill-opacity:1;stroke:none;stroke-width:3"
         x="79.027573"
         y="378.06143"
         id="tspan430">HELP14</tspan><tspan
         sodipodi:role="line"
         style="font-style:normal;font-variant:normal;font-weight:normal;font-stretch:normal;font-family:'tan seme A';-inkscape-font-specification:'tan seme A';text-align:end;text-anchor:end;fill:#000000;fill-opacity:1;stroke:none;stroke-width:3"
         x="79.027573"
         y="405.28757"
         id="tspan432">HELP15</tspan><tspan
         sodipodi:role="line"
         style="font-style:normal;font-variant:normal;font-weight:normal;font-stretch:normal;font-family:'tan seme A';-inkscape-font-specification:'tan seme A';text-align:end;text-anchor:end;fill:#000000;fill-opacity:1;stroke:none;stroke-width:3"
         x="79.027573"
         y="432.51367"
         id="tspan545"> HELP16</tspan></text>
  </g>
</svg>
